<svg width="64" height="64" viewBox="0 0 64 64" fill="none" xmlns="http://www.w3.org/2000/svg">
<path fill-rule="evenodd" clip-rule="evenodd" d="M31.7568 5.77397C28.3447 5.77397 24.966 6.44603 21.8136 7.75179C18.6612 9.05755 15.7969 10.9714 13.3842 13.3842C10.9714 15.7969 9.05757 18.6612 7.75179 21.8136C6.44603 24.966 5.77397 28.3448 5.77397 31.7568C5.77397 35.1688 6.44603 38.5476 7.75179 41.7C9.05757 44.8525 10.9714 47.7168 13.3842 50.1296C15.7969 52.542 18.6612 54.4559 21.8136 55.7618C24.966 57.0676 28.3447 57.7397 31.7568 57.7397C38.6478 57.7397 45.2567 55.0022 50.1296 50.1296C55.0023 45.2567 57.7397 38.6478 57.7397 31.7568C57.7397 24.8657 55.0023 18.2569 50.1296 13.3842C45.2567 8.51142 38.6478 5.77397 31.7568 5.77397ZM0 31.7568C0 14.2184 14.2184 0 31.7568 0C49.2953 0 63.5137 14.2184 63.5137 31.7568C63.5137 49.2952 49.2953 63.5137 31.7568 63.5137C14.2184 63.5137 0 49.2952 0 31.7568ZM35.3656 18.0436C35.3656 19.0007 34.9854 19.9186 34.3086 20.5954C33.6319 21.2721 32.7139 21.6524 31.7568 21.6524C30.7998 21.6524 29.8817 21.2721 29.205 20.5954C28.5283 19.9186 28.1481 19.0007 28.1481 18.0436C28.1481 17.0865 28.5283 16.1686 29.205 15.4919C29.8817 14.8151 30.7998 14.4349 31.7568 14.4349C32.7139 14.4349 33.6319 14.8151 34.3086 15.4919C34.9854 16.1686 35.3656 17.0865 35.3656 18.0436ZM28.8699 25.9828C28.1042 25.9828 27.3698 26.2871 26.8285 26.8285C26.2872 27.3698 25.9829 28.104 25.9829 28.87C25.9829 29.6356 26.2872 30.3698 26.8285 30.9112C27.3698 31.4528 28.1042 31.7568 28.8699 31.7568V46.1918C28.8699 46.9575 29.1741 47.6917 29.7155 48.233C30.2568 48.7746 30.9912 49.0786 31.7568 49.0786C32.5225 49.0786 33.2569 48.7746 33.7982 48.233C34.3395 47.6917 34.6438 46.9575 34.6438 46.1918V28.87C34.6438 28.104 34.3395 27.3698 33.7982 26.8285C33.2569 26.2871 32.5225 25.9828 31.7568 25.9828H28.8699Z" fill="black"/>
</svg>
