<svg width="15" height="19" viewBox="0 0 15 19" fill="none" xmlns="http://www.w3.org/2000/svg">
<g clip-path="url(#clip0_5628_32997)">
<path d="M0 1.9502L5.55 7.5002L0 13.0412C1.151 13.0342 2.301 13.0307 3.45 13.0307L8.985 7.5002L3.471 1.9847C2.542 1.9847 1.613 1.9792 0.684 1.9682C0.75 1.9682 0.408 1.9607 0 1.9502Z" fill="black"/>
<path d="M6.05134 1.98766L11.5638 7.50016L6.02734 13.0337C6.77134 13.0337 7.51534 13.0392 8.25934 13.0502C8.09434 13.0502 8.83834 13.0367 9.45934 13.0502L15.0093 7.50016L9.47434 1.97266C8.33284 1.98316 7.20034 1.98616 6.05134 1.98766Z" fill="black"/>
</g>
<defs>
<clipPath id="clip0_5628_32997">
<rect width="15" height="18.75" fill="white"/>
</clipPath>
</defs>
</svg>
