<svg width="36" height="36" viewBox="0 0 36 36" fill="none" xmlns="http://www.w3.org/2000/svg">
<circle cx="18" cy="18" r="18" fill="#EC7D36"/>
<path d="M28.4004 16.7998H28.0005V15.1998C27.9987 13.6541 26.7461 12.4015 25.2004 12.3997H18.4002V9.95966C19.4062 9.75429 20.0933 8.82057 19.9901 7.799C19.8869 6.77744 19.027 6 18.0002 6C16.9735 6 16.1135 6.77748 16.0103 7.799C15.9071 8.82057 16.5942 9.75429 17.6002 9.95966V12.3997H10.8001C9.25441 12.4015 8.00179 13.654 8.00005 15.1997V16.7997H7.60006C6.71636 16.7998 6 17.5161 6 18.3998V20.7998C6 21.6835 6.71636 22.3999 7.60002 22.3999H8.00001V23.9999C8.00179 25.5456 9.25436 26.7982 10.8 26.7999V29.6C10.8 29.7475 10.8812 29.8831 11.0114 29.9527C11.1415 30.0223 11.2993 30.0146 11.4221 29.9327L16.0222 26.8667C16.0874 26.8234 16.1639 26.8001 16.2422 26.7999H25.2004C26.7461 26.7981 27.9987 25.5455 28.0004 23.9998V22.3998H28.4004C29.2841 22.3998 30.0004 21.6835 30.0004 20.7998V18.3998C30.0005 17.5161 29.2841 16.7998 28.4004 16.7998ZM16.8002 7.99963C16.8002 7.3369 17.3375 6.79961 18.0002 6.79961C18.663 6.79961 19.2003 7.3369 19.2003 7.99963C19.2003 8.66236 18.663 9.19966 18.0002 9.19966C17.3375 9.19966 16.8002 8.66236 16.8002 7.99963ZM7.60002 21.5999C7.15816 21.5999 6.79998 21.2417 6.79998 20.7998V18.3998C6.79998 17.958 7.15816 17.5998 7.60002 17.5998H8.00001V21.5998H7.60002V21.5999ZM27.2004 23.9999C27.1991 25.1039 26.3044 25.9986 25.2004 26H16.2422C16.0054 25.9991 15.7737 26.0687 15.5766 26.2L11.6001 28.8525V26.8C11.6001 26.3582 11.2419 26 10.8001 26C9.69607 25.9987 8.8014 25.104 8.80004 23.9999V15.1998C8.80135 14.0958 9.69602 13.2011 10.8001 13.1997H25.2004C26.3044 13.201 27.1991 14.0957 27.2004 15.1998V23.9999ZM29.2004 20.7998C29.2004 21.2417 28.8423 21.5999 28.4004 21.5999H28.0004V17.5998H28.4004C28.8423 17.5998 29.2004 17.958 29.2004 18.3998V20.7998Z" fill="white"/>
<path d="M13.1993 16.4002C12.0947 16.4002 11.1992 17.2957 11.1992 18.4002C11.1992 19.5048 12.0947 20.4003 13.1993 20.4003C14.3039 20.4003 15.1993 19.5048 15.1993 18.4002C15.198 17.2962 14.3033 16.4015 13.1993 16.4002ZM13.1993 19.6002C12.5365 19.6002 11.9992 19.0629 11.9992 18.4002C11.9992 17.7375 12.5365 17.2002 13.1993 17.2002C13.862 17.2002 14.3993 17.7375 14.3993 18.4002C14.3993 19.0629 13.862 19.6002 13.1993 19.6002Z" fill="white"/>
<path d="M22.8008 16.4002C21.6963 16.4002 20.8008 17.2957 20.8008 18.4002C20.8008 19.5048 21.6963 20.4003 22.8008 20.4003C23.9054 20.4003 24.8009 19.5048 24.8009 18.4002C24.7995 17.2962 23.9049 16.4015 22.8008 16.4002ZM22.8008 19.6002C22.1381 19.6002 21.6008 19.0629 21.6008 18.4002C21.6008 17.7375 22.1381 17.2002 22.8008 17.2002C23.4636 17.2002 24.0009 17.7375 24.0009 18.4002C24.0009 19.0629 23.4636 19.6002 22.8008 19.6002Z" fill="white"/>
<path d="M20.2152 21.268C20.0306 21.1504 19.7859 21.2013 19.6636 21.3828C19.6468 21.408 19.2316 22.0004 17.9992 22.0004C16.7775 22.0004 16.3591 21.418 16.3351 21.3836C16.2148 21.2019 15.9711 21.15 15.7872 21.2668C15.6032 21.3836 15.5466 21.6263 15.6599 21.8124C15.6851 21.8524 16.2971 22.8004 17.9992 22.8004C19.7012 22.8004 20.3132 21.8528 20.3384 21.8124C20.4532 21.6278 20.3983 21.3851 20.2152 21.268Z" fill="white"/>
</svg>
