<svg width="26" height="26" viewBox="0 0 26 26" fill="none" xmlns="http://www.w3.org/2000/svg">
<path d="M13.1466 0.662109C16.453 0.662109 19.6239 1.97556 21.9619 4.31351C24.2998 6.65147 25.6133 9.82241 25.6133 13.1288C25.6133 16.4351 24.2998 19.6061 21.9619 21.944C19.6239 24.282 16.453 25.5954 13.1466 25.5954C9.84025 25.5954 6.6693 24.282 4.33135 21.944C1.99339 19.6061 0.679947 16.4351 0.679947 13.1288C0.679947 9.82241 1.99339 6.65147 4.33135 4.31351C6.6693 1.97556 9.84025 0.662109 13.1466 0.662109ZM6.91328 13.1537C6.91118 13.2878 6.93615 13.421 6.9867 13.5452C7.03726 13.6695 7.11235 13.7822 7.20749 13.8768L11.3115 17.9683C11.4047 18.0617 11.5153 18.1357 11.6371 18.1863C11.7588 18.2368 11.8894 18.2629 12.0212 18.263C12.1531 18.2632 12.2837 18.2373 12.4055 18.1869C12.5274 18.1366 12.6382 18.0627 12.7315 17.9696C12.8248 17.8764 12.8988 17.7658 12.9494 17.644C13 17.5223 13.0261 17.3917 13.0262 17.2599C13.0263 17.128 13.0004 16.9974 12.9501 16.8756C12.8997 16.7537 12.8259 16.6429 12.7327 16.5496L10.3291 14.1436H18.3826C18.6471 14.1436 18.9008 14.0385 19.0878 13.8515C19.2749 13.6644 19.3799 13.4107 19.3799 13.1462C19.3799 12.8817 19.2749 12.628 19.0878 12.441C18.9008 12.254 18.6471 12.1489 18.3826 12.1489H10.3067L12.7327 9.72288C12.9212 9.53442 13.0271 9.27881 13.0271 9.01228C13.0271 8.88031 13.0011 8.74963 12.9506 8.62771C12.9001 8.50578 12.826 8.395 12.7327 8.30168C12.6394 8.20837 12.5286 8.13434 12.4067 8.08384C12.2848 8.03334 12.1541 8.00734 12.0221 8.00734C11.7556 8.00734 11.5 8.11322 11.3115 8.30168L7.20749 12.3932C7.11386 12.4863 7.03964 12.5971 6.98914 12.719C6.93863 12.841 6.91285 12.9718 6.91328 13.1038V13.1537Z" fill="#292C31"/>
</svg>
