<svg width="26" height="26" viewBox="0 0 26 26" fill="none" xmlns="http://www.w3.org/2000/svg">
<path d="M12.9276 25.5938C9.62124 25.5938 6.45029 24.2803 4.11234 21.9423C1.77439 19.6044 0.460938 16.4334 0.460938 13.1271C0.460938 9.82072 1.77439 6.64977 4.11234 4.31182C6.45029 1.97386 9.62124 0.660416 12.9276 0.660416C16.234 0.660416 19.4049 1.97386 21.7429 4.31182C24.0808 6.64977 25.3943 9.82072 25.3943 13.1271C25.3943 16.4334 24.0808 19.6044 21.7429 21.9423C19.4049 24.2803 16.234 25.5938 12.9276 25.5938ZM19.1609 13.1021C19.163 12.968 19.1381 12.8349 19.0875 12.7106C19.037 12.5864 18.9619 12.4736 18.8667 12.3791L14.7627 8.28752C14.6695 8.1942 14.5589 8.12015 14.4371 8.06958C14.3154 8.01902 14.1848 7.99293 14.053 7.99282C13.9211 7.9927 13.7905 8.01856 13.6687 8.06891C13.5468 8.11926 13.4361 8.19312 13.3427 8.28627C13.2494 8.37943 13.1754 8.49005 13.1248 8.61183C13.0742 8.7336 13.0482 8.86414 13.048 8.99599C13.0479 9.12785 13.0738 9.25844 13.1241 9.3803C13.1745 9.50216 13.2483 9.61291 13.3415 9.70623L15.7451 12.1123L7.6916 12.1123C7.4271 12.1123 7.17342 12.2174 6.98638 12.4044C6.79935 12.5914 6.69427 12.8451 6.69427 13.1096C6.69427 13.3741 6.79935 13.6278 6.98638 13.8149C7.17342 14.0019 7.4271 14.107 7.6916 14.107L15.7675 14.107L13.3415 16.533C13.153 16.7214 13.0472 16.977 13.0472 17.2436C13.0472 17.3755 13.0732 17.5062 13.1237 17.6281C13.1742 17.7501 13.2482 17.8609 13.3415 17.9542C13.4348 18.0475 13.5456 18.1215 13.6675 18.172C13.7894 18.2225 13.9201 18.2485 14.0521 18.2485C14.3186 18.2485 14.5742 18.1426 14.7627 17.9542L18.8667 13.8626C18.9604 13.7695 19.0346 13.6588 19.0851 13.5368C19.1356 13.4148 19.1614 13.284 19.1609 13.152V13.1021Z" fill="#292C31"/>
</svg>
