<svg width="45" height="46" viewBox="0 0 45 46" fill="none" xmlns="http://www.w3.org/2000/svg">
<path d="M19.4337 18.8066H15.0742V23.1646H19.4337V18.8066Z" fill="#D16611"/>
<path d="M19.4337 25.5049H15.0742V29.8658H19.4337V25.5049Z" fill="#D16611"/>
<path d="M19.4337 32.2051H15.0742V36.566H19.4337V32.2051Z" fill="#D16611"/>
<path d="M11.605 25.5049H7.24609V29.8658H11.605V25.5049Z" fill="#D16611"/>
<path d="M11.605 32.2051H7.24609V36.566H11.605V32.2051Z" fill="#D16611"/>
<path d="M13.4392 6.01392C13.4392 7.73024 12.0483 9.1212 10.3309 9.1212C8.61462 9.1212 7.22266 7.73024 7.22266 6.01392V3.10829C7.22266 1.39197 8.61462 0 10.3309 0C12.0483 0 13.4392 1.39197 13.4392 3.10829V6.01392Z" fill="#D16611"/>
<path d="M34.6658 6.01392C34.6658 7.73024 33.2779 9.1212 31.559 9.1212C29.8432 9.1212 28.4492 7.73024 28.4492 6.01392V3.10829C28.4497 1.39197 29.8437 0 31.5595 0C33.2784 0 34.6663 1.39197 34.6663 3.10829L34.6658 6.01392Z" fill="#D16611"/>
<path d="M33.3826 45.2591C26.9795 45.2591 21.7656 40.0378 21.7656 33.621C21.7656 27.1983 26.98 21.9824 33.3826 21.9824C39.7852 21.9824 44.9991 27.1983 44.9991 33.621C44.9986 40.0378 39.7852 45.2591 33.3826 45.2591ZM33.3826 24.874C28.5721 24.874 24.6577 28.7979 24.6577 33.6215C24.6577 38.4396 28.5716 42.3641 33.3826 42.3641C38.1936 42.3641 42.1055 38.4396 42.1055 33.6215C42.105 28.7979 38.1931 24.874 33.3826 24.874Z" fill="#D16611"/>
<path d="M33.4959 34.9525C33.0166 35.1954 32.4378 35.0018 32.1974 34.5256C31.951 34.0433 32.1426 33.4615 32.6219 33.2186L38.8802 30.0645C39.3564 29.8207 39.9428 30.0143 40.1816 30.492C40.425 30.9738 40.2364 31.5501 39.7522 31.7939L33.4959 34.9525Z" fill="#D16611"/>
<path d="M31.6996 33.8993C31.7635 33.07 32.4861 32.4535 33.3143 32.5184C34.1431 32.5827 34.7571 33.3074 34.6922 34.1326C34.6294 34.9573 33.9072 35.5784 33.0775 35.5135C32.2528 35.4491 31.6377 34.7245 31.6996 33.8993Z" fill="#D16611"/>
<path d="M33.3852 20.2685C33.9635 20.2685 34.5302 20.3183 35.0894 20.3892V18.8066H30.7305V20.535C31.5884 20.3615 32.4765 20.2685 33.3852 20.2685Z" fill="#D16611"/>
<path d="M27.2633 21.7706V18.8066H22.9023V23.1646H25.1165C25.7828 22.634 26.5009 22.1674 27.2633 21.7706Z" fill="#D16611"/>
<path d="M22.2433 40.9325C22.2423 40.9315 22.2413 40.929 22.2398 40.9265C21.9682 40.5116 21.7243 40.0776 21.499 39.6321H3.18372V15.7403H38.7005V21.3816C38.7015 21.3816 38.7015 21.3821 38.7025 21.3826C39.229 21.6129 39.7319 21.883 40.2202 22.1767C40.3097 22.23 40.3987 22.2833 40.4872 22.3391C40.9745 22.6484 41.4477 22.9788 41.8897 23.3469V5.4082H36.3143V6.01417C36.3143 8.63417 34.1811 10.7694 31.5586 10.7694C28.9361 10.7694 26.8049 8.63467 26.8049 6.01417V5.4082H15.0843V6.01417C15.0843 8.63417 12.9506 10.7694 10.3306 10.7694C7.70661 10.7694 5.57692 8.63467 5.57692 6.01417V5.4082H0V42.1344H23.1223C23.1213 42.1344 23.1213 42.1329 23.1203 42.1329C22.8055 41.7512 22.5164 41.3489 22.2433 40.9325Z" fill="#D16611"/>
</svg>
