<svg width="44" height="45" viewBox="0 0 44 45" fill="none" xmlns="http://www.w3.org/2000/svg">
<path d="M16.6536 44.7606C18.432 44.7606 19.8736 43.3065 19.8736 41.5126C19.8736 39.7188 18.432 38.2646 16.6536 38.2646C14.8752 38.2646 13.4336 39.7188 13.4336 41.5126C13.4336 43.3065 14.8752 44.7606 16.6536 44.7606Z" fill="#D16611"/>
<path d="M33.9934 44.7606C35.7718 44.7606 37.2134 43.3065 37.2134 41.5126C37.2134 39.7188 35.7718 38.2646 33.9934 38.2646C32.2151 38.2646 30.7734 39.7188 30.7734 41.5126C30.7734 43.3065 32.2151 44.7606 33.9934 44.7606Z" fill="#D16611"/>
<path d="M43.194 7.26899C42.872 6.85139 42.366 6.61939 41.814 6.61939H11.408L10.764 2.16499C10.626 1.28339 9.89 0.633789 9.016 0.633789H1.748C0.782 0.633789 0 1.42259 0 2.39699C0 3.37139 0.782 4.16019 1.748 4.16019H7.452L12.052 34.6914C12.19 35.573 12.926 36.2226 13.8 36.2226H36.11C37.076 36.2226 37.858 35.4338 37.858 34.4594C37.858 33.485 37.076 32.6962 36.11 32.6962H15.318L14.766 28.9842H38.272C39.1 28.9842 39.836 28.381 40.02 27.5458L43.608 8.70739C43.7 8.19699 43.562 7.68659 43.194 7.26899ZM17.71 25.0866C17.664 25.0866 17.618 25.0866 17.572 25.0866C16.652 25.0866 15.916 24.3906 15.824 23.4626L14.904 12.5122C14.812 11.5378 15.548 10.6562 16.514 10.6098C17.48 10.517 18.354 11.2594 18.4 12.2338L19.32 23.2306C19.412 24.1586 18.676 24.9938 17.71 25.0866ZM27.094 23.3234C27.094 24.2978 26.312 25.0866 25.346 25.0866C24.38 25.0866 23.598 24.2978 23.598 23.3234V12.3266C23.598 11.3522 24.38 10.5634 25.346 10.5634C26.312 10.5634 27.094 11.3522 27.094 12.3266V23.3234ZM34.822 23.4626C34.73 24.3906 33.994 25.0866 33.074 25.0866C33.028 25.0866 32.982 25.0866 32.936 25.0866C31.97 24.9938 31.234 24.1586 31.326 23.1842L32.246 12.1874C32.338 11.213 33.166 10.4706 34.132 10.5634C35.098 10.6562 35.834 11.4914 35.742 12.4658L34.822 23.4626Z" fill="#D16611"/>
</svg>
