<svg width="59" height="60" viewBox="0 0 59 60" fill="none" xmlns="http://www.w3.org/2000/svg">
<path d="M22.51 59.9786C24.9146 59.9786 26.8638 58.0124 26.8638 55.587C26.8638 53.1615 24.9146 51.1953 22.51 51.1953C20.1055 51.1953 18.1562 53.1615 18.1562 55.587C18.1562 58.0124 20.1055 59.9786 22.51 59.9786Z" fill="black"/>
<path d="M45.9632 59.9786C48.3677 59.9786 50.3169 58.0124 50.3169 55.587C50.3169 53.1615 48.3677 51.1953 45.9632 51.1953C43.5586 51.1953 41.6094 53.1615 41.6094 55.587C41.6094 58.0124 43.5586 59.9786 45.9632 59.9786Z" fill="black"/>
<path d="M58.4029 9.28595C57.9675 8.72131 57.2834 8.40762 56.537 8.40762H15.4248L14.5541 2.3848C14.3675 1.19278 13.3723 0.314453 12.1906 0.314453H2.36348C1.05735 0.314453 0 1.38099 0 2.69849C0 4.01598 1.05735 5.08252 2.36348 5.08252H10.0759L16.2956 46.364C16.4822 47.556 17.4773 48.4343 18.6591 48.4343H48.8246C50.1307 48.4343 51.1881 47.3678 51.1881 46.0503C51.1881 44.7328 50.1307 43.6662 48.8246 43.6662H20.7116L19.9652 38.6472H51.7478C52.8674 38.6472 53.8625 37.8316 54.1113 36.7024L58.9627 11.2308C59.0871 10.5407 58.9005 9.85059 58.4029 9.28595ZM23.9458 33.3773C23.8836 33.3773 23.8214 33.3773 23.7592 33.3773C22.5153 33.3773 21.5201 32.4362 21.3957 31.1814L20.1518 16.3753C20.0274 15.0578 21.0226 13.8658 22.3287 13.8031C23.6348 13.6776 24.8166 14.6814 24.8788 15.9989L26.1227 30.8677C26.2471 32.1225 25.252 33.2518 23.9458 33.3773ZM36.634 30.9932C36.634 32.3107 35.5766 33.3773 34.2705 33.3773C32.9644 33.3773 31.907 32.3107 31.907 30.9932V16.1244C31.907 14.8069 32.9644 13.7403 34.2705 13.7403C35.5766 13.7403 36.634 14.8069 36.634 16.1244V30.9932ZM47.0831 31.1814C46.9587 32.4362 45.9635 33.3773 44.7196 33.3773C44.6574 33.3773 44.5952 33.3773 44.533 33.3773C43.2269 33.2518 42.2317 32.1225 42.3561 30.805L43.6 15.9362C43.7244 14.6187 44.844 13.6149 46.1501 13.7403C47.4563 13.8658 48.4514 14.9951 48.327 16.3126L47.0831 31.1814Z" fill="black"/>
</svg>
