<svg width="40" height="40" viewBox="0 0 40 40" fill="none" xmlns="http://www.w3.org/2000/svg">
<path d="M22.8321 18.5618C24.5255 18.5618 26.1809 18.0597 27.5889 17.1189C28.9969 16.178 30.0943 14.8408 30.7424 13.2763C31.3904 11.7118 31.56 9.99028 31.2296 8.32941C30.8992 6.66854 30.0838 5.14293 28.8864 3.94551C27.6889 2.74809 26.1633 1.93263 24.5025 1.60226C22.8416 1.2719 21.1201 1.44145 19.5555 2.08949C17.991 2.73753 16.6538 3.83495 15.713 5.24297C14.7722 6.65099 14.2701 8.30637 14.2701 9.99978C14.2701 12.2706 15.1721 14.4484 16.7778 16.0541C18.3835 17.6597 20.5613 18.5618 22.8321 18.5618ZM17.5379 8.98661C17.6706 8.85286 17.8284 8.7467 18.0023 8.67425C18.1762 8.6018 18.3627 8.5645 18.5511 8.5645C18.7395 8.5645 18.926 8.6018 19.0999 8.67425C19.2738 8.7467 19.4316 8.85286 19.5642 8.98661L21.4051 10.8417L25.3436 6.88891C25.4767 6.75586 25.6346 6.65031 25.8085 6.57831C25.9823 6.5063 26.1686 6.46924 26.3568 6.46924C26.545 6.46924 26.7313 6.5063 26.9051 6.57831C27.079 6.65031 27.2369 6.75586 27.37 6.88891C27.503 7.02196 27.6086 7.17992 27.6806 7.35376C27.7526 7.5276 27.7896 7.71392 27.7896 7.90208C27.7896 8.09025 27.7526 8.27657 27.6806 8.45041C27.6086 8.62425 27.503 8.78221 27.37 8.91526L22.4183 13.867C22.2856 14.0007 22.1278 14.1069 21.9539 14.1793C21.78 14.2518 21.5935 14.2891 21.4051 14.2891C21.2167 14.2891 21.0302 14.2518 20.8563 14.1793C20.6824 14.1069 20.5246 14.0007 20.3919 13.867L17.5379 11.013C17.4042 10.8803 17.298 10.7225 17.2255 10.5486C17.1531 10.3747 17.1158 10.1882 17.1158 9.99978C17.1158 9.8114 17.1531 9.62488 17.2255 9.45099C17.298 9.27709 17.4042 9.11927 17.5379 8.98661ZM12.0011 27.1238H31.9792C32.9334 27.1239 33.8602 26.8052 34.6126 26.2183C35.3649 25.6314 35.8996 24.81 36.1318 23.8845L39.9562 8.91526C40.0096 8.70464 40.0143 8.4846 39.9697 8.27192C39.9252 8.05924 39.8327 7.85954 39.6993 7.68803C39.5605 7.51213 39.3823 7.37138 39.179 7.27717C38.9757 7.18296 38.7531 7.13795 38.5292 7.14577H33.8771C34.1172 8.07833 34.2418 9.03684 34.2481 9.99978C34.2481 13.0275 33.0454 15.9312 30.9045 18.0721C28.7635 20.2131 25.8598 21.4158 22.8321 21.4158C19.8044 21.4158 16.9007 20.2131 14.7597 18.0721C12.6188 15.9312 11.416 13.0275 11.416 9.99978C11.4224 9.03684 11.547 8.07833 11.7871 7.14577H8.56203L7.62021 3.30713C7.39842 2.36868 6.86629 1.53259 6.11003 0.934313C5.35376 0.336034 4.41766 0.0106046 3.45335 0.0107422H1.42701C1.04854 0.0107422 0.685576 0.161087 0.41796 0.428702C0.150345 0.696318 0 1.05928 0 1.43775C0 1.81621 0.150345 2.17918 0.41796 2.44679C0.685576 2.71441 1.04854 2.86475 1.42701 2.86475H3.45335C3.78127 2.85599 4.10219 2.96046 4.3621 3.16059C4.62201 3.36072 4.80503 3.64428 4.88036 3.96355L9.84634 25.2545L8.1482 26.9526C7.55025 27.5513 7.14313 28.3138 6.97826 29.1437C6.81338 29.9737 6.89816 30.8338 7.22187 31.6156C7.54557 32.3974 8.0937 33.0657 8.79702 33.5362C9.50034 34.0067 10.3273 34.2581 11.1735 34.2589C10.9598 34.8477 10.878 35.4762 10.9337 36.1C10.9894 36.7239 11.1814 37.3279 11.496 37.8695C11.8107 38.4111 12.2403 38.8771 12.7546 39.2345C13.269 39.592 13.8555 39.8322 14.4728 39.9383C15.0901 40.0444 15.7232 40.0137 16.3273 39.8484C16.9315 39.6831 17.492 39.3873 17.9694 38.9818C18.4467 38.5763 18.8293 38.071 19.0901 37.5015C19.3509 36.932 19.4835 36.3122 19.4786 35.6859C19.4768 35.1976 19.3849 34.7138 19.2075 34.2589H24.4731C24.2385 34.9055 24.163 35.5992 24.2533 36.2811C24.3435 36.963 24.5968 37.6132 24.9916 38.1765C25.3864 38.7398 25.9112 39.1997 26.5214 39.5172C27.1316 39.8347 27.8094 40.0005 28.4973 40.0005C29.1852 40.0005 29.863 39.8347 30.4732 39.5172C31.0834 39.1997 31.6082 38.7398 32.003 38.1765C32.3978 37.6132 32.6511 36.963 32.7413 36.2811C32.8316 35.5992 32.7562 34.9055 32.5215 34.2589H35.6751C36.0536 34.2589 36.4166 34.1085 36.6842 33.8409C36.9518 33.5733 37.1021 33.2103 37.1021 32.8319C37.1021 32.4534 36.9518 32.0904 36.6842 31.8228C36.4166 31.5552 36.0536 31.4049 35.6751 31.4049H11.1735C10.89 31.4065 10.6125 31.3237 10.3763 31.167C10.1401 31.0103 9.95593 30.7869 9.84724 30.5251C9.73855 30.2633 9.71028 29.9751 9.76603 29.6972C9.82178 29.4193 9.95903 29.1643 10.1603 28.9647L12.0011 27.1238ZM28.5401 34.2589C28.8223 34.2589 29.0982 34.3426 29.3329 34.4994C29.5676 34.6562 29.7505 34.879 29.8585 35.1398C29.9665 35.4005 29.9948 35.6875 29.9397 35.9643C29.8846 36.2411 29.7487 36.4954 29.5492 36.6949C29.3496 36.8945 29.0953 37.0304 28.8185 37.0855C28.5417 37.1405 28.2548 37.1123 27.994 37.0043C27.7333 36.8963 27.5104 36.7134 27.3536 36.4787C27.1968 36.244 27.1131 35.9681 27.1131 35.6859C27.1131 35.3074 27.2635 34.9445 27.5311 34.6768C27.7987 34.4092 28.1616 34.2589 28.5401 34.2589ZM15.2404 34.2589C15.5227 34.2589 15.7986 34.3426 16.0332 34.4994C16.2679 34.6562 16.4508 34.879 16.5588 35.1398C16.6668 35.4005 16.6951 35.6875 16.64 35.9643C16.5849 36.2411 16.449 36.4954 16.2495 36.6949C16.0499 36.8945 15.7956 37.0304 15.5188 37.0855C15.242 37.1405 14.9551 37.1123 14.6943 37.0043C14.4336 36.8963 14.2107 36.7134 14.0539 36.4787C13.8971 36.244 13.8134 35.9681 13.8134 35.6859C13.8134 35.3074 13.9638 34.9445 14.2314 34.6768C14.499 34.4092 14.862 34.2589 15.2404 34.2589Z" fill="#D16611"/>
</svg>
