<svg width="63" height="51" viewBox="0 0 63 51" fill="none" xmlns="http://www.w3.org/2000/svg">
<path d="M40 13L43.75 16.75L22.5 38L18.75 34.25L40 13ZM6.25 0.5H56.25C59.7188 0.5 62.5 3.28125 62.5 6.75V19.25C60.8424 19.25 59.2527 19.9085 58.0806 21.0806C56.9085 22.2527 56.25 23.8424 56.25 25.5C56.25 27.1576 56.9085 28.7473 58.0806 29.9194C59.2527 31.0915 60.8424 31.75 62.5 31.75V44.25C62.5 47.7188 59.7188 50.5 56.25 50.5H6.25C4.5924 50.5 3.00268 49.8415 1.83058 48.6694C0.65848 47.4973 0 45.9076 0 44.25V31.75C3.46875 31.75 6.25 28.9688 6.25 25.5C6.25 23.8424 5.59152 22.2527 4.41942 21.0806C3.24732 19.9085 1.6576 19.25 0 19.25V6.75C0 5.0924 0.65848 3.50268 1.83058 2.33058C3.00268 1.15848 4.5924 0.5 6.25 0.5ZM6.25 6.75V14.6875C8.149 15.7825 9.72611 17.3583 10.8227 19.2564C11.9192 21.1545 12.4966 23.3079 12.4966 25.5C12.4966 27.6921 11.9192 29.8455 10.8227 31.7436C9.72611 33.6417 8.149 35.2175 6.25 36.3125V44.25H56.25V36.3125C54.351 35.2175 52.7739 33.6417 51.6773 31.7436C50.5808 29.8455 50.0034 27.6921 50.0034 25.5C50.0034 23.3079 50.5808 21.1545 51.6773 19.2564C52.7739 17.3583 54.351 15.7825 56.25 14.6875V6.75H6.25ZM23.4375 13C26.0312 13 28.125 15.0938 28.125 17.6875C28.125 20.2812 26.0312 22.375 23.4375 22.375C20.8438 22.375 18.75 20.2812 18.75 17.6875C18.75 15.0938 20.8438 13 23.4375 13ZM39.0625 28.625C41.6562 28.625 43.75 30.7188 43.75 33.3125C43.75 35.9062 41.6562 38 39.0625 38C36.4688 38 34.375 35.9062 34.375 33.3125C34.375 30.7188 36.4688 28.625 39.0625 28.625Z" fill="black"/>
</svg>
