<svg width="49" height="40" viewBox="0 0 49 40" fill="none" xmlns="http://www.w3.org/2000/svg">
<path d="M29.3449 0.242188C24.1939 0.242188 19.3489 2.32219 15.6769 6.06619C15.0139 6.74219 15.0139 7.83419 15.6769 8.51019L18.5329 11.4222C18.8899 11.7862 19.2979 11.9422 19.7569 11.9422C20.2159 11.9422 20.6239 11.7862 20.9809 11.4222C21.6439 10.7462 21.6439 9.65419 20.9809 8.97819L19.3999 7.36619C21.7969 5.39019 24.6529 4.19419 27.7129 3.88219V6.17019C27.7129 7.10619 28.4779 7.88619 29.3959 7.88619C30.3139 7.88619 31.0789 7.10619 31.0789 6.17019V3.88219C34.1899 4.24619 37.0459 5.49419 39.3919 7.41819L37.7599 8.97819C37.0969 9.65419 37.0969 10.7462 37.7599 11.4222C38.1169 11.7862 38.5249 11.9422 38.9839 11.9422C39.4429 11.9422 39.8509 11.7862 40.2079 11.4222L41.7889 9.81019C43.6759 12.1502 44.8999 15.0622 45.2569 18.2862H43.0129C42.0949 18.2862 41.3299 19.0662 41.3299 20.0022C41.3299 20.9382 42.0949 21.7182 43.0129 21.7182H45.2569C44.8999 24.8902 43.6759 27.8022 41.7889 30.1422L40.2079 28.5302C39.5449 27.8542 38.4739 27.8542 37.8109 28.5302C37.1479 29.2062 37.1479 30.2982 37.8109 30.9742L39.3919 32.5862C37.0459 34.5622 34.1899 35.8102 31.0789 36.1742V33.8862C31.0789 32.9502 30.3139 32.1702 29.3959 32.1702C28.4779 32.1702 27.7129 32.9502 27.7129 33.8862V36.1742C24.6529 35.8622 21.7969 34.6142 19.3999 32.6902L20.9809 31.0782C21.6439 30.4022 21.6439 29.3102 20.9809 28.6342C20.3179 27.9582 19.2469 27.9582 18.5839 28.6342L15.7279 31.5462C15.5749 31.7022 15.4219 31.9102 15.3709 32.1182C15.1159 32.7422 15.2689 33.4702 15.7279 33.9902C19.3489 37.6822 24.1939 39.7622 29.3449 39.7622C40.0039 39.7622 48.7249 30.9222 48.7249 20.0022C48.7249 9.08219 40.0549 0.242188 29.3449 0.242188Z" fill="#292C31"/>
<path d="M29.3451 10.1719C28.4271 10.1719 27.6621 10.9519 27.6621 11.8879V19.9999C27.6621 20.9359 28.4271 21.7159 29.3451 21.7159H36.1281C37.0461 21.7159 37.8111 20.9359 37.8111 19.9999C37.8111 19.0639 37.0461 18.2839 36.1281 18.2839H31.0791V11.8879C31.0791 10.9519 30.3141 10.1719 29.3451 10.1719Z" fill="#292C31"/>
<path d="M13.2804 18.2852H1.95839C1.04039 18.2852 0.275391 19.0652 0.275391 20.0012C0.275391 20.9372 1.04039 21.7172 1.95839 21.7172H13.2804C14.1984 21.7172 14.9634 20.9372 14.9634 20.0012C14.9634 19.0652 14.1984 18.2852 13.2804 18.2852Z" fill="#292C31"/>
<path d="M13.2804 11.6289H5.83437C4.91637 11.6289 4.15137 12.4089 4.15137 13.3449C4.15137 14.2809 4.91637 15.0609 5.83437 15.0609H13.2804C14.1984 15.0609 14.9634 14.2809 14.9634 13.3449C14.9634 12.4089 14.1984 11.6289 13.2804 11.6289Z" fill="#292C31"/>
<path d="M13.2804 24.8906H5.83437C4.91637 24.8906 4.15137 25.6706 4.15137 26.6066C4.15137 27.5426 4.91637 28.3226 5.83437 28.3226H13.2804C14.1984 28.3226 14.9634 27.5426 14.9634 26.6066C14.9634 25.6706 14.1984 24.8906 13.2804 24.8906Z" fill="#292C31"/>
</svg>
