<svg width="44" height="44" viewBox="0 0 44 44" fill="none" xmlns="http://www.w3.org/2000/svg">
<path d="M23.9862 6.0319L22.8523 5.18133C30.7547 5.51906 37.6563 10.9278 39.7938 18.5903L41.2116 18.1952C38.8895 9.8727 31.3646 4.0107 22.7699 3.70682L23.9862 2.79444L23.1032 1.61719L19.375 4.41317L23.1025 7.20916L23.9862 6.0319Z" fill="#292C31"/>
<path d="M41.2042 20.8477L38.4082 24.5759L39.5854 25.4581L40.4323 24.3294C40.0549 32.9874 33.5174 40.3938 24.9043 41.7241L25.1294 43.1787C34.4769 41.7351 41.5794 33.6687 41.9238 24.2595L42.8229 25.4588L44.0001 24.5766L41.2042 20.8477Z" fill="#292C31"/>
<path d="M21.4299 30.1675H25.699C26.0029 28.4193 26.1934 26.429 26.2302 24.2812H23.5453V27.9602H20.3976L19.7178 29.1036C19.8259 29.3368 19.9245 29.573 20.0121 29.807L21.4299 30.1675Z" fill="#292C31"/>
<path d="M25.6983 16.9219H22.8089C22.8089 17.7003 22.5543 18.4523 22.0967 19.077C22.9958 20.0092 23.5447 21.2623 23.5447 22.6411V22.8082H26.2296C26.1928 20.6604 26.0022 18.6701 25.6983 16.9219Z" fill="#292C31"/>
<path d="M25.4052 15.4527C24.5848 11.84 23.2861 9.56641 22.0736 9.56641C21.3326 9.56641 20.5946 9.64219 19.8662 9.75771V11.0453C19.8662 12.1593 20.4364 13.2556 21.432 14.054C21.9051 14.4336 22.2641 14.9148 22.4989 15.4527H25.4052Z" fill="#292C31"/>
<path d="M11.2947 22.0718L13.3431 17.4731C13.0738 17.259 12.8604 16.9868 12.717 16.6741C12.1842 16.833 11.6206 16.9213 11.0372 16.9213C10.4507 16.9213 9.88492 16.8323 9.35 16.6719C9.20652 16.9875 8.99535 17.259 8.73047 17.4717L10.7796 22.0718H11.2947Z" fill="#292C31"/>
<path d="M20.0225 26.4867H22.0732V22.6408C22.0732 20.9176 20.9003 19.443 19.2213 19.056L14.7116 18.0156L12.9053 22.072H13.8154L14.3401 24.1337C14.5748 24.2212 14.8102 24.3198 15.0435 24.428L16.8748 23.3398L17.6584 24.1226V21.3362H19.13V25.5942L20.0225 26.4867Z" fill="#292C31"/>
<path d="M15.4515 11.0368V8.37327C15.4515 8.21875 15.3264 8.09367 15.1719 8.09367H12.6872C10.6792 8.09367 8.78086 7.38364 7.27913 6.08203C6.86562 6.44183 6.62207 6.96497 6.62207 7.53153V11.0368C6.62207 13.4715 8.60207 15.4515 11.0368 15.4515C13.4715 15.4515 15.4515 13.4715 15.4515 11.0368Z" fill="#292C31"/>
<path d="M33.4508 15.4537C31.4156 12.601 28.3444 10.5386 24.7832 9.83594C25.7073 11.1626 26.4211 13.1499 26.9133 15.4537H33.4508Z" fill="#292C31"/>
<path d="M18.2277 36.816C18.4404 36.404 18.614 35.9875 18.7457 35.5755L18.8701 35.187L20.6021 34.7477V31.4772L18.8701 31.0372L18.7457 30.6487C18.614 30.2366 18.4404 29.8202 18.2277 29.4081L18.0408 29.0461L18.9576 27.5047L16.645 25.1921L15.1028 26.1089L14.7401 25.9205C14.3295 25.7086 13.9131 25.5342 13.5018 25.4025L13.1133 25.2789L12.6725 23.5469H9.40197L8.96124 25.2789L8.57274 25.4025C8.16144 25.5342 7.74499 25.7086 7.33442 25.9205L6.97168 26.1089L5.42947 25.1921L3.1169 27.5047L4.03368 29.0461L3.84679 29.4081C3.63415 29.8202 3.46051 30.2366 3.3288 30.6487L3.20372 31.0372L1.47168 31.4764V34.747L3.20372 35.187L3.32807 35.5755C3.45977 35.9875 3.63342 36.404 3.84606 36.816L4.03295 37.178L3.11616 38.7195L5.42873 41.0321L6.97094 40.1153L7.33368 40.3036C7.74425 40.5156 8.1607 40.6899 8.57201 40.8216L8.9605 40.9453L9.40124 42.6773H12.6718L13.1125 40.9453L13.501 40.8216C13.9123 40.6899 14.3288 40.5156 14.7394 40.3036L15.1021 40.1153L16.6443 41.0321L18.9569 38.7195L18.0401 37.178L18.2277 36.816ZM11.0369 38.9984C7.78619 38.9984 5.15061 36.3628 5.15061 33.1121C5.15061 29.8614 7.78619 27.2258 11.0369 27.2258C14.2876 27.2258 16.9232 29.8614 16.9232 33.1121C16.9232 36.3628 14.2876 38.9984 11.0369 38.9984Z" fill="#292C31"/>
<path d="M22.0738 31.6406V35.8913L20.0121 36.4159C19.9245 36.6499 19.8267 36.886 19.7178 37.1193L19.8487 37.3393C20.5816 37.457 21.3269 37.5269 22.0738 37.5269C23.2863 37.5269 24.585 35.2533 25.4054 31.6406H22.0738Z" fill="#292C31"/>
<path d="M33.4508 31.6406H26.9133C26.4218 33.9444 25.7081 35.9317 24.7832 37.2583C28.3444 36.5557 31.4156 34.4933 33.4508 31.6406Z" fill="#292C31"/>
<path d="M2.94314 25.5942V21.3362H4.41471V24.1226L5.19759 23.3398L7.02896 24.428C7.2622 24.3198 7.49765 24.2212 7.73237 24.1337L8.25772 22.072H9.16789L7.36153 18.0156L2.8519 19.056C1.17284 19.4438 0 20.9183 0 22.6408V26.4867H2.05063L2.94314 25.5942Z" fill="#292C31"/>
<path d="M34.3813 16.9219H27.1904C27.4987 18.7922 27.6738 20.8061 27.7084 22.8082H36.0169C35.9051 20.6891 35.3363 18.69 34.3813 16.9219Z" fill="#292C31"/>
<path d="M2.52134 17.6235L7.52395 16.4691C7.74542 16.4183 7.91465 16.2675 8.0103 16.0754C6.30034 15.0446 5.15104 13.1742 5.15104 11.0368V7.5315C5.15104 6.23652 5.87064 5.07177 7.0295 4.49271L7.50408 4.25578L7.87933 4.63103C9.16328 5.91498 10.871 6.62207 12.6877 6.62207H15.1724C16.1385 6.62207 16.9236 7.40715 16.9236 8.37324V11.0368C16.9236 13.1742 15.7743 15.0446 14.0643 16.0754C14.1593 16.2675 14.3292 16.4183 14.5507 16.4691L19.5526 17.6235C20.05 17.7383 20.5069 17.934 20.9322 18.1739C21.1934 17.8082 21.3383 17.3793 21.3383 16.9231C21.3383 16.2498 21.0366 15.6222 20.5113 15.2006C19.1663 14.1212 18.3952 12.6062 18.3952 11.0441V7.35785C18.3952 3.30073 15.0944 0 11.0373 0C6.9802 0 3.67947 3.30073 3.67947 7.35785V11.0441C3.67947 12.6062 2.90837 14.1212 1.56335 15.2006C1.038 15.6222 0.736328 16.2498 0.736328 16.9231C0.736328 17.3793 0.881278 17.8082 1.14248 18.1739C1.56703 17.934 2.02395 17.7383 2.52134 17.6235Z" fill="#292C31"/>
<path d="M27.1904 30.1675H34.3813C35.3363 28.3994 35.9051 26.4003 36.0162 24.2812H27.7084C27.6738 26.2833 27.4987 28.2972 27.1904 30.1675Z" fill="#292C31"/>
<path d="M11.0369 36.0543C12.6623 36.0543 13.98 34.7366 13.98 33.1111C13.98 31.4857 12.6623 30.168 11.0369 30.168C9.41144 30.168 8.09375 31.4857 8.09375 33.1111C8.09375 34.7366 9.41144 36.0543 11.0369 36.0543Z" fill="#292C31"/>
</svg>
