<svg width="44" height="55" viewBox="0 0 44 55" fill="none" xmlns="http://www.w3.org/2000/svg">
<path d="M23.4085 28.6445L20.5925 30.7565L20.0645 33.2205L23.7605 30.3605L23.4085 28.6445Z" fill="#292C31"/>
<path d="M23.9799 31.2852L20.5479 33.9252L22.2639 35.5532C22.3079 35.5532 22.3079 35.5972 22.3519 35.5972C22.3959 35.5972 22.3959 35.5972 22.4399 35.5532L24.4199 33.4412C24.4639 33.3972 24.4639 33.3532 24.4639 33.3092L23.9799 31.2852Z" fill="#292C31"/>
<path d="M21.6037 26.2673L20.8997 29.4793L23.2317 27.7193L22.9237 26.3113L23.8917 25.1233C23.9357 25.0793 23.9357 25.0353 23.8917 24.9913L23.2757 23.4513C23.2757 23.4073 23.2317 23.3633 23.1877 23.3633H21.2957C21.2517 23.3633 21.2077 23.4073 21.2077 23.4513L20.6357 24.9913C20.6357 25.0353 20.6357 25.0793 20.6797 25.1233L21.6037 26.2673Z" fill="#292C31"/>
<path d="M22.2203 8.44922C18.5243 8.44922 15.4883 11.4412 15.4883 15.1812C15.4883 18.9212 18.4803 21.9132 22.2203 21.9132C25.9603 21.9132 28.9963 18.9212 28.9963 15.1812C28.9963 11.4412 25.9603 8.44922 22.2203 8.44922ZM27.3243 15.1372C27.3243 17.9092 25.0363 20.2412 22.2203 20.2412C19.4043 20.2412 17.1603 17.9972 17.1603 15.1372C17.1603 14.7412 17.2043 14.3012 17.3363 13.9052C17.9083 14.2132 19.0083 14.6092 20.2403 14.6092C21.1203 14.6092 22.0883 14.3892 23.0123 13.7292C23.1003 13.6412 25.3443 12.0572 27.1483 13.6852C27.2363 14.1692 27.3243 14.6532 27.3243 15.1372Z" fill="#292C31"/>
<path d="M33.1322 30.4913L33.1762 28.7313C33.1762 25.7833 30.7562 23.3633 27.8082 23.3633H27.6322L24.9922 35.0233C28.2042 34.3633 30.9762 32.7353 33.1322 30.4913ZM30.8002 28.6433H28.2922V27.8513H30.8002V28.6433Z" fill="#292C31"/>
<path d="M19.4481 35.1123L16.5441 23.3203H16.2801C13.3321 23.3203 10.9121 25.7403 10.9121 28.6883L11.0001 30.6683C13.2441 33.0003 16.1921 34.5843 19.4481 35.1123Z" fill="#292C31"/>
<path d="M22.0441 0.660156C10.2521 0.660156 0.704102 10.2082 0.704102 22.0002C0.704102 22.7482 1.3201 23.4082 2.1121 23.4082C2.9041 23.4082 3.5201 22.7922 3.5201 22.0002C3.5201 11.7482 11.8361 3.43216 22.0881 3.43216C32.3401 3.43216 40.6561 11.7482 40.6561 22.0002C40.6561 32.2522 32.2961 40.5682 22.0441 40.5682C21.2961 40.5682 20.6361 41.1842 20.6361 41.9762C20.6361 42.7242 21.2521 43.3842 22.0441 43.3842C33.8361 43.3842 43.3841 33.7922 43.3841 22.0442C43.3841 10.2962 33.8361 0.660156 22.0441 0.660156Z" fill="#292C31"/>
<path d="M15.7078 40.1294L12.0558 37.2254C12.0558 37.2254 10.4718 39.3374 9.63576 39.1174C9.63576 39.1174 7.08376 37.8854 4.88376 34.0574C4.44376 33.3094 6.90776 31.7694 6.90776 31.7694L4.22376 27.9414C4.22376 27.9414 0.615759 30.1414 1.05576 32.2974C1.49576 34.4534 3.69576 40.2614 10.6918 42.9894C13.1998 43.9574 15.7078 40.1294 15.7078 40.1294Z" fill="#292C31"/>
</svg>
