<svg width="36" height="37" viewBox="0 0 36 37" fill="none" xmlns="http://www.w3.org/2000/svg">
<g clip-path="url(#clip0_3630_1123)">
<path d="M18 0.969727C8.05781 0.969727 0 8.82685 0 18.5214C0 28.216 8.05781 36.0731 18 36.0731C27.9422 36.0731 36 28.216 36 18.5214C36 8.82685 27.9422 0.969727 18 0.969727ZM29.2359 29.4706C27.7734 30.8967 26.0789 32.0143 24.1875 32.789C22.2328 33.598 20.1516 34.0025 18 34.0025C15.8555 34.0025 13.7742 33.5912 11.8125 32.789C9.92109 32.0074 8.21953 30.8899 6.76406 29.4706C5.30156 28.0446 4.15547 26.3922 3.36094 24.5479C2.53125 22.6419 2.10938 20.6125 2.10938 18.5214C2.10938 16.4303 2.53125 14.4009 3.35391 12.488C4.15547 10.6437 5.30156 8.98454 6.75703 7.56532C8.22656 6.13925 9.92109 5.0217 11.8125 4.2401C13.7742 3.43793 15.8555 3.02656 18 3.02656C20.1445 3.02656 22.2258 3.43793 24.1875 4.2401C26.0789 5.0217 27.7805 6.13925 29.2359 7.55846C30.6984 8.98454 31.8445 10.6369 32.6391 12.4812C33.4688 14.3872 33.8836 16.4166 33.8836 18.5146C33.8836 20.6057 33.4617 22.6351 32.6391 24.5479C31.8375 26.3922 30.6914 28.0514 29.2359 29.4706Z" fill="white"/>
<path d="M20.3762 12.5356C21.1004 12.5356 21.8738 12.755 21.8738 12.755L22.3379 10.0674C22.3379 10.0674 21.3535 9.73828 19.0051 9.73828C17.5637 9.73828 16.727 10.2731 16.1152 11.0615C15.5387 11.8088 15.5176 13.0087 15.5176 13.7834V15.5454H13.6543V18.1713H15.5176V27.29H19.0051V18.1713H21.7684L21.9723 15.5454H19.0051V13.4954C19.0051 12.7893 19.652 12.5356 20.3762 12.5356Z" fill="white"/>
</g>
<defs>
<clipPath id="clip0_3630_1123">
<rect width="36" height="35.1034" fill="white" transform="translate(0 0.969727)"/>
</clipPath>
</defs>
</svg>
