<svg width="360" height="800" viewBox="0 0 360 800" fill="none" xmlns="http://www.w3.org/2000/svg">
<rect width="360" height="800" rx="20" fill="url(#paint0_angular_64_735)"/>
<path d="M237.87 358.579H230.322V351.031C230.322 347.694 228.997 344.494 226.637 342.135C224.278 339.776 221.078 338.45 217.741 338.45H205.161V330.902C205.161 330.235 204.896 329.595 204.424 329.123C203.952 328.651 203.312 328.386 202.645 328.386H182.516V322.976C184.887 322.364 186.954 320.907 188.329 318.88C189.704 316.852 190.292 314.393 189.984 311.963C189.675 309.533 188.491 307.299 186.653 305.679C184.815 304.06 182.449 303.167 179.999 303.167C177.55 303.167 175.184 304.06 173.346 305.679C171.508 307.299 170.324 309.533 170.015 311.963C169.706 314.393 170.295 316.852 171.67 318.88C173.044 320.907 175.111 322.364 177.483 322.976V328.386H157.354C156.687 328.386 156.047 328.651 155.575 329.123C155.103 329.595 154.838 330.235 154.838 330.902V338.45H142.257C138.921 338.45 135.721 339.776 133.362 342.135C131.002 344.494 129.677 347.694 129.677 351.031V358.579H122.128C120.127 358.579 118.207 359.375 116.791 360.79C115.375 362.206 114.58 364.126 114.58 366.128V396.321C114.58 398.323 115.375 400.243 116.791 401.659C118.207 403.074 120.127 403.87 122.128 403.87H129.677V411.418C129.677 414.755 131.002 417.955 133.362 420.314C135.721 422.673 138.921 423.999 142.257 423.999H217.741C221.078 423.999 224.278 422.673 226.637 420.314C228.997 417.955 230.322 414.755 230.322 411.418V403.87H237.87C239.872 403.87 241.792 403.074 243.208 401.659C244.624 400.243 245.419 398.323 245.419 396.321V366.128C245.419 364.126 244.624 362.206 243.208 360.79C241.792 359.375 239.872 358.579 237.87 358.579ZM174.967 313.289C174.967 312.294 175.262 311.321 175.815 310.493C176.368 309.666 177.154 309.021 178.074 308.64C178.993 308.259 180.005 308.159 180.981 308.353C181.957 308.548 182.854 309.027 183.558 309.731C184.262 310.434 184.741 311.331 184.935 312.307C185.129 313.283 185.03 314.295 184.649 315.215C184.268 316.134 183.623 316.92 182.795 317.473C181.968 318.026 180.995 318.321 179.999 318.321C178.665 318.321 177.385 317.791 176.441 316.847C175.497 315.904 174.967 314.624 174.967 313.289ZM122.128 398.837C121.461 398.837 120.821 398.572 120.349 398.1C119.877 397.629 119.612 396.989 119.612 396.321V366.128C119.612 365.46 119.877 364.82 120.349 364.348C120.821 363.877 121.461 363.612 122.128 363.612H129.677V398.837H122.128ZM159.87 333.418H200.128V338.45H159.87V333.418ZM225.29 411.418C225.29 413.42 224.494 415.34 223.079 416.756C221.663 418.171 219.743 418.966 217.741 418.966H142.257C140.256 418.966 138.336 418.171 136.92 416.756C135.504 415.34 134.709 413.42 134.709 411.418V351.031C134.709 349.029 135.504 347.109 136.92 345.693C138.336 344.278 140.256 343.483 142.257 343.483H217.741C219.743 343.483 221.663 344.278 223.079 345.693C224.494 347.109 225.29 349.029 225.29 351.031V411.418ZM240.387 396.321C240.387 396.989 240.121 397.629 239.65 398.1C239.178 398.572 238.538 398.837 237.87 398.837H230.322V363.612H237.87C238.538 363.612 239.178 363.877 239.65 364.348C240.121 364.82 240.387 365.46 240.387 366.128V396.321Z" fill="white"/>
<path d="M202.644 383.742H157.354C156.687 383.742 156.047 384.007 155.575 384.479C155.103 384.951 154.838 385.591 154.838 386.258V388.775C154.838 395.448 157.489 401.848 162.207 406.566C166.926 411.285 173.326 413.936 179.999 413.936C186.672 413.936 193.072 411.285 197.791 406.566C202.51 401.848 205.16 395.448 205.16 388.775V386.258C205.16 385.591 204.895 384.951 204.424 384.479C203.952 384.007 203.312 383.742 202.644 383.742ZM179.999 408.904C174.661 408.904 169.541 406.783 165.766 403.008C161.991 399.233 159.87 394.113 159.87 388.775H200.128C200.128 394.113 198.007 399.233 194.233 403.008C190.458 406.783 185.338 408.904 179.999 408.904Z" fill="white"/>
<path d="M164.902 368.645C164.902 366.655 164.312 364.709 163.206 363.054C162.1 361.399 160.529 360.109 158.689 359.347C156.85 358.585 154.827 358.386 152.874 358.774C150.922 359.162 149.129 360.121 147.721 361.529C146.314 362.936 145.355 364.729 144.967 366.682C144.578 368.634 144.778 370.658 145.54 372.497C146.301 374.336 147.591 375.908 149.246 377.014C150.902 378.12 152.847 378.71 154.838 378.71C157.507 378.71 160.067 377.649 161.955 375.762C163.842 373.875 164.902 371.315 164.902 368.645ZM149.806 368.645C149.806 367.65 150.101 366.677 150.654 365.85C151.207 365.022 151.993 364.377 152.912 363.996C153.832 363.615 154.844 363.516 155.82 363.71C156.796 363.904 157.693 364.383 158.396 365.087C159.1 365.791 159.579 366.687 159.774 367.664C159.968 368.64 159.868 369.652 159.487 370.571C159.106 371.491 158.461 372.277 157.634 372.829C156.806 373.382 155.833 373.678 154.838 373.678C153.503 373.678 152.223 373.147 151.28 372.204C150.336 371.26 149.806 369.98 149.806 368.645Z" fill="white"/>
<path d="M205.16 358.581C203.17 358.581 201.224 359.171 199.569 360.277C197.914 361.383 196.624 362.955 195.862 364.794C195.1 366.633 194.901 368.656 195.289 370.609C195.677 372.561 196.636 374.354 198.044 375.762C199.451 377.17 201.244 378.128 203.197 378.516C205.149 378.905 207.173 378.705 209.012 377.944C210.851 377.182 212.423 375.892 213.529 374.237C214.634 372.582 215.225 370.636 215.225 368.645C215.225 365.976 214.164 363.416 212.277 361.529C210.389 359.641 207.83 358.581 205.16 358.581ZM205.16 373.678C204.165 373.678 203.192 373.382 202.364 372.829C201.537 372.276 200.892 371.491 200.511 370.571C200.13 369.652 200.03 368.64 200.225 367.664C200.419 366.687 200.898 365.791 201.602 365.087C202.306 364.383 203.202 363.904 204.178 363.71C205.155 363.516 206.166 363.615 207.086 363.996C208.006 364.377 208.791 365.022 209.344 365.849C209.897 366.677 210.192 367.65 210.192 368.645C210.192 369.98 209.662 371.26 208.719 372.204C207.775 373.147 206.495 373.678 205.16 373.678Z" fill="white"/>
<path d="M140.472 322.6C140.705 322.838 140.983 323.027 141.289 323.156C141.596 323.286 141.925 323.353 142.258 323.355C142.925 323.355 143.565 323.09 144.037 322.618C144.509 322.146 144.774 321.506 144.774 320.839V313.29H159.871C161.873 313.29 163.793 312.495 165.208 311.079C166.624 309.664 167.419 307.744 167.419 305.742V275.548C167.419 273.546 166.624 271.626 165.208 270.211C163.793 268.795 161.873 268 159.871 268H109.548C107.546 268 105.626 268.795 104.211 270.211C102.795 271.626 102 273.546 102 275.548V305.742C102 307.744 102.795 309.664 104.211 311.079C105.626 312.495 107.546 313.29 109.548 313.29H131.162L140.472 322.6ZM107.032 305.742V275.548C107.032 274.881 107.297 274.241 107.769 273.769C108.241 273.297 108.881 273.032 109.548 273.032H159.871C160.538 273.032 161.178 273.297 161.65 273.769C162.122 274.241 162.387 274.881 162.387 275.548V305.742C162.387 306.409 162.122 307.049 161.65 307.521C161.178 307.993 160.538 308.258 159.871 308.258H142.258C141.591 308.258 140.951 308.523 140.479 308.995C140.007 309.467 139.742 310.107 139.742 310.774V314.75L133.98 308.988C133.745 308.755 133.466 308.57 133.16 308.445C132.853 308.32 132.525 308.256 132.194 308.258H109.548C108.881 308.258 108.241 307.993 107.769 307.521C107.297 307.049 107.032 306.409 107.032 305.742Z" fill="white"/>
<path d="M250.451 278.065H200.128C198.127 278.065 196.207 278.861 194.791 280.276C193.375 281.692 192.58 283.612 192.58 285.614V315.807C192.58 317.809 193.375 319.729 194.791 321.145C196.207 322.56 198.127 323.356 200.128 323.356H215.225V330.904C215.225 331.571 215.49 332.211 215.962 332.683C216.434 333.155 217.074 333.42 217.741 333.42C218.074 333.419 218.404 333.351 218.71 333.222C219.017 333.092 219.295 332.903 219.528 332.665L228.837 323.356H250.451C252.453 323.356 254.373 322.56 255.789 321.145C257.204 319.729 257.999 317.809 257.999 315.807V285.614C257.999 283.612 257.204 281.692 255.789 280.276C254.373 278.861 252.453 278.065 250.451 278.065ZM252.967 315.807C252.967 316.475 252.702 317.115 252.23 317.586C251.758 318.058 251.118 318.323 250.451 318.323H227.806C227.475 318.321 227.146 318.385 226.84 318.51C226.533 318.635 226.255 318.82 226.019 319.053L220.257 324.815V320.84C220.257 320.172 219.992 319.532 219.521 319.06C219.049 318.588 218.409 318.323 217.741 318.323H200.128C199.461 318.323 198.821 318.058 198.349 317.586C197.877 317.115 197.612 316.475 197.612 315.807V285.614C197.612 284.946 197.877 284.306 198.349 283.835C198.821 283.363 199.461 283.098 200.128 283.098H250.451C251.118 283.098 251.758 283.363 252.23 283.835C252.702 284.306 252.967 284.946 252.967 285.614V315.807Z" fill="white"/>
<path d="M112.064 278.065H157.355V283.098H112.064V278.065Z" fill="white"/>
<path d="M112.064 298.192H157.355V303.225H112.064V298.192Z" fill="white"/>
<path d="M117.096 288.131H152.322V293.163H117.096V288.131Z" fill="white"/>
<path d="M202.646 288.131H247.937V293.163H202.646V288.131Z" fill="white"/>
<path d="M202.646 308.258H247.937V313.29H202.646V308.258Z" fill="white"/>
<path d="M207.678 298.192H242.904V303.225H207.678V298.192Z" fill="white"/>
<path d="M95.8398 615.719V617.662H88.291V615.719H95.8398ZM88.8965 609.781V624H86.4453V609.781H88.8965ZM97.7246 609.781V624H95.2832V609.781H97.7246ZM100.561 618.834V618.609C100.561 617.848 100.672 617.141 100.893 616.49C101.114 615.833 101.433 615.263 101.85 614.781C102.273 614.293 102.788 613.915 103.393 613.648C104.005 613.375 104.695 613.238 105.463 613.238C106.238 613.238 106.928 613.375 107.534 613.648C108.146 613.915 108.663 614.293 109.086 614.781C109.51 615.263 109.832 615.833 110.053 616.49C110.274 617.141 110.385 617.848 110.385 618.609V618.834C110.385 619.596 110.274 620.302 110.053 620.953C109.832 621.604 109.51 622.174 109.086 622.662C108.663 623.144 108.149 623.521 107.543 623.795C106.938 624.062 106.251 624.195 105.483 624.195C104.708 624.195 104.015 624.062 103.403 623.795C102.797 623.521 102.283 623.144 101.86 622.662C101.437 622.174 101.114 621.604 100.893 620.953C100.672 620.302 100.561 619.596 100.561 618.834ZM102.914 618.609V618.834C102.914 619.309 102.963 619.758 103.061 620.182C103.159 620.605 103.312 620.976 103.52 621.295C103.728 621.614 103.995 621.865 104.321 622.047C104.646 622.229 105.034 622.32 105.483 622.32C105.919 622.32 106.297 622.229 106.616 622.047C106.941 621.865 107.208 621.614 107.416 621.295C107.625 620.976 107.778 620.605 107.875 620.182C107.98 619.758 108.032 619.309 108.032 618.834V618.609C108.032 618.141 107.98 617.698 107.875 617.281C107.778 616.858 107.621 616.484 107.407 616.158C107.198 615.833 106.931 615.579 106.606 615.396C106.287 615.208 105.906 615.113 105.463 615.113C105.021 615.113 104.636 615.208 104.311 615.396C103.992 615.579 103.728 615.833 103.52 616.158C103.312 616.484 103.159 616.858 103.061 617.281C102.963 617.698 102.914 618.141 102.914 618.609ZM115.829 621.656L118.27 613.434H119.774L119.364 615.895L116.903 624H115.555L115.829 621.656ZM114.393 613.434L116.298 621.695L116.454 624H114.95L112.089 613.434H114.393ZM122.059 621.598L123.905 613.434H126.2L123.348 624H121.845L122.059 621.598ZM120.028 613.434L122.44 621.559L122.743 624H121.395L118.905 615.885L118.495 613.434H120.028ZM138.298 622.32C138.683 622.32 139.028 622.245 139.334 622.096C139.646 621.939 139.897 621.725 140.086 621.451C140.281 621.178 140.388 620.862 140.408 620.504H142.625C142.612 621.188 142.41 621.809 142.019 622.369C141.629 622.929 141.111 623.375 140.466 623.707C139.822 624.033 139.109 624.195 138.328 624.195C137.52 624.195 136.817 624.059 136.218 623.785C135.619 623.505 135.121 623.121 134.724 622.633C134.327 622.145 134.028 621.581 133.826 620.943C133.63 620.305 133.533 619.622 133.533 618.893V618.551C133.533 617.822 133.63 617.138 133.826 616.5C134.028 615.855 134.327 615.289 134.724 614.801C135.121 614.312 135.619 613.932 136.218 613.658C136.817 613.378 137.517 613.238 138.318 613.238C139.164 613.238 139.907 613.408 140.545 613.746C141.183 614.078 141.684 614.544 142.048 615.143C142.42 615.735 142.612 616.425 142.625 617.213H140.408C140.388 616.822 140.291 616.471 140.115 616.158C139.946 615.839 139.705 615.585 139.392 615.396C139.086 615.208 138.718 615.113 138.289 615.113C137.813 615.113 137.42 615.211 137.107 615.406C136.795 615.595 136.55 615.855 136.375 616.188C136.199 616.513 136.072 616.881 135.994 617.291C135.922 617.695 135.886 618.115 135.886 618.551V618.893C135.886 619.329 135.922 619.752 135.994 620.162C136.065 620.572 136.189 620.94 136.365 621.266C136.547 621.585 136.795 621.842 137.107 622.037C137.42 622.226 137.817 622.32 138.298 622.32ZM150.988 621.881V616.842C150.988 616.464 150.92 616.139 150.783 615.865C150.646 615.592 150.438 615.38 150.158 615.23C149.885 615.081 149.54 615.006 149.123 615.006C148.739 615.006 148.407 615.071 148.127 615.201C147.847 615.331 147.629 615.507 147.473 615.729C147.316 615.95 147.238 616.201 147.238 616.48H144.895C144.895 616.064 144.995 615.66 145.197 615.27C145.399 614.879 145.692 614.531 146.076 614.225C146.46 613.919 146.919 613.678 147.453 613.502C147.987 613.326 148.586 613.238 149.25 613.238C150.044 613.238 150.747 613.372 151.359 613.639C151.978 613.906 152.463 614.309 152.814 614.85C153.173 615.383 153.352 616.054 153.352 616.861V621.559C153.352 622.04 153.384 622.473 153.449 622.857C153.521 623.235 153.622 623.564 153.752 623.844V624H151.34C151.229 623.746 151.141 623.424 151.076 623.033C151.018 622.636 150.988 622.252 150.988 621.881ZM151.33 617.574L151.35 619.029H149.66C149.224 619.029 148.84 619.072 148.508 619.156C148.176 619.234 147.899 619.352 147.678 619.508C147.456 619.664 147.29 619.853 147.18 620.074C147.069 620.296 147.014 620.546 147.014 620.826C147.014 621.106 147.079 621.363 147.209 621.598C147.339 621.826 147.528 622.005 147.775 622.135C148.029 622.265 148.335 622.33 148.693 622.33C149.175 622.33 149.595 622.232 149.953 622.037C150.318 621.835 150.604 621.591 150.812 621.305C151.021 621.012 151.132 620.735 151.145 620.475L151.906 621.52C151.828 621.786 151.695 622.073 151.506 622.379C151.317 622.685 151.07 622.978 150.764 623.258C150.464 623.531 150.103 623.756 149.68 623.932C149.263 624.107 148.781 624.195 148.234 624.195C147.544 624.195 146.929 624.059 146.389 623.785C145.848 623.505 145.425 623.131 145.119 622.662C144.813 622.187 144.66 621.65 144.66 621.051C144.66 620.491 144.764 619.996 144.973 619.566C145.188 619.13 145.5 618.766 145.91 618.473C146.327 618.18 146.835 617.958 147.434 617.809C148.033 617.652 148.716 617.574 149.484 617.574H151.33ZM158.746 615.689V624H156.393V613.434H158.61L158.746 615.689ZM158.327 618.326L157.565 618.316C157.571 617.568 157.676 616.881 157.877 616.256C158.086 615.631 158.372 615.094 158.737 614.645C159.108 614.195 159.551 613.85 160.065 613.609C160.579 613.362 161.152 613.238 161.784 613.238C162.291 613.238 162.75 613.31 163.161 613.453C163.577 613.59 163.932 613.814 164.225 614.127C164.524 614.439 164.752 614.846 164.909 615.348C165.065 615.842 165.143 616.451 165.143 617.174V624H162.78V617.164C162.78 616.656 162.705 616.256 162.555 615.963C162.412 615.663 162.2 615.452 161.92 615.328C161.647 615.198 161.305 615.133 160.895 615.133C160.491 615.133 160.13 615.217 159.811 615.387C159.492 615.556 159.222 615.787 159 616.08C158.786 616.373 158.62 616.712 158.502 617.096C158.385 617.48 158.327 617.89 158.327 618.326ZM176.577 609.781V624H174.126V609.781H176.577ZM187.895 609V624H185.551V609H187.895ZM187.484 618.326L186.723 618.316C186.729 617.587 186.83 616.913 187.025 616.295C187.227 615.676 187.507 615.139 187.865 614.684C188.23 614.221 188.666 613.867 189.174 613.619C189.682 613.365 190.245 613.238 190.863 613.238C191.384 613.238 191.853 613.31 192.27 613.453C192.693 613.596 193.057 613.827 193.363 614.146C193.669 614.459 193.9 614.869 194.057 615.377C194.219 615.878 194.301 616.49 194.301 617.213V624H191.938V617.193C191.938 616.686 191.863 616.282 191.713 615.982C191.57 615.683 191.358 615.468 191.078 615.338C190.798 615.201 190.456 615.133 190.053 615.133C189.63 615.133 189.255 615.217 188.93 615.387C188.611 615.556 188.344 615.787 188.129 616.08C187.914 616.373 187.751 616.712 187.641 617.096C187.536 617.48 187.484 617.89 187.484 618.326ZM201.942 624.195C201.161 624.195 200.454 624.068 199.823 623.814C199.198 623.554 198.664 623.193 198.221 622.73C197.785 622.268 197.45 621.725 197.215 621.1C196.981 620.475 196.864 619.801 196.864 619.078V618.688C196.864 617.861 196.984 617.112 197.225 616.441C197.466 615.771 197.801 615.198 198.231 614.723C198.661 614.241 199.168 613.873 199.754 613.619C200.34 613.365 200.975 613.238 201.659 613.238C202.414 613.238 203.075 613.365 203.641 613.619C204.207 613.873 204.676 614.231 205.047 614.693C205.425 615.149 205.705 615.693 205.887 616.324C206.076 616.956 206.17 617.652 206.17 618.414V619.42H198.006V617.73H203.846V617.545C203.833 617.122 203.748 616.725 203.592 616.354C203.442 615.982 203.211 615.683 202.899 615.455C202.586 615.227 202.17 615.113 201.649 615.113C201.258 615.113 200.91 615.198 200.604 615.367C200.304 615.53 200.054 615.768 199.852 616.08C199.65 616.393 199.494 616.77 199.383 617.213C199.279 617.649 199.227 618.141 199.227 618.688V619.078C199.227 619.54 199.289 619.97 199.412 620.367C199.543 620.758 199.732 621.1 199.979 621.393C200.226 621.686 200.526 621.917 200.877 622.086C201.229 622.249 201.629 622.33 202.079 622.33C202.645 622.33 203.149 622.216 203.592 621.988C204.035 621.76 204.419 621.438 204.745 621.021L205.985 622.223C205.757 622.555 205.461 622.874 205.096 623.18C204.732 623.479 204.286 623.723 203.758 623.912C203.237 624.101 202.632 624.195 201.942 624.195ZM211.126 609V624H208.762V609H211.126ZM216.667 615.465V628.062H214.314V613.434H216.482L216.667 615.465ZM223.552 618.619V618.824C223.552 619.592 223.461 620.305 223.279 620.963C223.103 621.614 222.839 622.184 222.488 622.672C222.142 623.154 221.716 623.528 221.208 623.795C220.7 624.062 220.114 624.195 219.45 624.195C218.793 624.195 218.217 624.075 217.722 623.834C217.234 623.587 216.82 623.238 216.482 622.789C216.143 622.34 215.87 621.812 215.661 621.207C215.46 620.595 215.316 619.924 215.232 619.195V618.404C215.316 617.63 215.46 616.926 215.661 616.295C215.87 615.663 216.143 615.12 216.482 614.664C216.82 614.208 217.234 613.857 217.722 613.609C218.21 613.362 218.78 613.238 219.431 613.238C220.095 613.238 220.684 613.368 221.198 613.629C221.713 613.883 222.146 614.247 222.497 614.723C222.849 615.191 223.113 615.758 223.288 616.422C223.464 617.079 223.552 617.812 223.552 618.619ZM221.198 618.824V618.619C221.198 618.131 221.153 617.678 221.062 617.262C220.971 616.839 220.827 616.467 220.632 616.148C220.437 615.829 220.186 615.582 219.88 615.406C219.581 615.224 219.219 615.133 218.796 615.133C218.379 615.133 218.021 615.204 217.722 615.348C217.422 615.484 217.172 615.676 216.97 615.924C216.768 616.171 216.612 616.461 216.501 616.793C216.39 617.118 216.312 617.473 216.267 617.857V619.752C216.345 620.221 216.478 620.65 216.667 621.041C216.856 621.432 217.123 621.744 217.468 621.979C217.82 622.206 218.269 622.32 218.816 622.32C219.239 622.32 219.6 622.229 219.9 622.047C220.199 621.865 220.443 621.614 220.632 621.295C220.827 620.969 220.971 620.595 221.062 620.172C221.153 619.749 221.198 619.299 221.198 618.824ZM234.801 622.848L237.672 613.434H240.191L235.953 625.611C235.855 625.872 235.729 626.155 235.572 626.461C235.416 626.767 235.211 627.057 234.957 627.33C234.71 627.61 234.4 627.835 234.029 628.004C233.658 628.18 233.209 628.268 232.682 628.268C232.473 628.268 232.271 628.248 232.076 628.209C231.887 628.176 231.708 628.141 231.539 628.102L231.529 626.305C231.594 626.311 231.673 626.318 231.764 626.324C231.861 626.331 231.939 626.334 231.998 626.334C232.389 626.334 232.714 626.285 232.975 626.188C233.235 626.096 233.447 625.947 233.609 625.738C233.779 625.53 233.922 625.25 234.039 624.898L234.801 622.848ZM233.18 613.434L235.689 621.344L236.109 623.824L234.479 624.244L230.641 613.434H233.18ZM241.534 618.834V618.609C241.534 617.848 241.644 617.141 241.866 616.49C242.087 615.833 242.406 615.263 242.823 614.781C243.246 614.293 243.76 613.915 244.366 613.648C244.978 613.375 245.668 613.238 246.436 613.238C247.211 613.238 247.901 613.375 248.506 613.648C249.118 613.915 249.636 614.293 250.059 614.781C250.482 615.263 250.804 615.833 251.026 616.49C251.247 617.141 251.358 617.848 251.358 618.609V618.834C251.358 619.596 251.247 620.302 251.026 620.953C250.804 621.604 250.482 622.174 250.059 622.662C249.636 623.144 249.121 623.521 248.516 623.795C247.911 624.062 247.224 624.195 246.455 624.195C245.681 624.195 244.987 624.062 244.375 623.795C243.77 623.521 243.256 623.144 242.832 622.662C242.409 622.174 242.087 621.604 241.866 620.953C241.644 620.302 241.534 619.596 241.534 618.834ZM243.887 618.609V618.834C243.887 619.309 243.936 619.758 244.034 620.182C244.131 620.605 244.284 620.976 244.493 621.295C244.701 621.614 244.968 621.865 245.293 622.047C245.619 622.229 246.006 622.32 246.455 622.32C246.892 622.32 247.269 622.229 247.588 622.047C247.914 621.865 248.181 621.614 248.389 621.295C248.597 620.976 248.75 620.605 248.848 620.182C248.952 619.758 249.004 619.309 249.004 618.834V618.609C249.004 618.141 248.952 617.698 248.848 617.281C248.75 616.858 248.594 616.484 248.379 616.158C248.171 615.833 247.904 615.579 247.579 615.396C247.26 615.208 246.879 615.113 246.436 615.113C245.993 615.113 245.609 615.208 245.284 615.396C244.965 615.579 244.701 615.833 244.493 616.158C244.284 616.484 244.131 616.858 244.034 617.281C243.936 617.698 243.887 618.141 243.887 618.609ZM260.288 621.51V613.434H262.651V624H260.425L260.288 621.51ZM260.62 619.312L261.411 619.293C261.411 620.003 261.333 620.657 261.177 621.256C261.02 621.848 260.779 622.366 260.454 622.809C260.128 623.245 259.712 623.587 259.204 623.834C258.696 624.075 258.087 624.195 257.378 624.195C256.863 624.195 256.391 624.12 255.962 623.971C255.532 623.821 255.161 623.59 254.848 623.277C254.542 622.965 254.305 622.558 254.136 622.057C253.966 621.555 253.882 620.956 253.882 620.26V613.434H256.235V620.279C256.235 620.663 256.281 620.986 256.372 621.246C256.463 621.5 256.587 621.705 256.743 621.861C256.899 622.018 257.082 622.128 257.29 622.193C257.498 622.258 257.72 622.291 257.954 622.291C258.624 622.291 259.152 622.161 259.536 621.9C259.927 621.633 260.203 621.275 260.366 620.826C260.535 620.377 260.62 619.872 260.62 619.312ZM270.068 619.811H267.89C267.896 619.205 267.948 618.697 268.046 618.287C268.144 617.87 268.307 617.493 268.534 617.154C268.769 616.816 269.078 616.458 269.462 616.08C269.762 615.794 270.032 615.523 270.273 615.27C270.514 615.009 270.706 614.736 270.849 614.449C270.992 614.156 271.064 613.821 271.064 613.443C271.064 613.033 270.995 612.685 270.859 612.398C270.722 612.112 270.52 611.894 270.253 611.744C269.993 611.594 269.667 611.52 269.277 611.52C268.951 611.52 268.645 611.585 268.359 611.715C268.072 611.839 267.841 612.034 267.665 612.301C267.489 612.561 267.395 612.906 267.382 613.336H265.029C265.042 612.516 265.237 611.826 265.614 611.266C265.992 610.706 266.5 610.286 267.138 610.006C267.776 609.726 268.489 609.586 269.277 609.586C270.149 609.586 270.894 609.736 271.513 610.035C272.131 610.328 272.603 610.758 272.929 611.324C273.261 611.884 273.427 612.561 273.427 613.355C273.427 613.928 273.313 614.449 273.085 614.918C272.857 615.38 272.561 615.813 272.196 616.217C271.832 616.614 271.438 617.011 271.015 617.408C270.65 617.74 270.403 618.102 270.273 618.492C270.142 618.876 270.074 619.316 270.068 619.811ZM267.695 622.857C267.695 622.506 267.815 622.21 268.056 621.969C268.297 621.721 268.626 621.598 269.042 621.598C269.459 621.598 269.788 621.721 270.029 621.969C270.269 622.21 270.39 622.506 270.39 622.857C270.39 623.209 270.269 623.508 270.029 623.756C269.788 623.997 269.459 624.117 269.042 624.117C268.626 624.117 268.297 623.997 268.056 623.756C267.815 623.508 267.695 623.209 267.695 622.857Z" fill="white"/>
<defs>
<radialGradient id="paint0_angular_64_735" cx="0" cy="0" r="1" gradientUnits="userSpaceOnUse" gradientTransform="translate(176.75 437.5) rotate(70.9355) scale(395.704 178.067)">
<stop offset="0.993877" stop-color="#FEBC04" stop-opacity="0.8"/>
<stop offset="0.9953" stop-color="#D70D09" stop-opacity="0.8"/>
</radialGradient>
</defs>
</svg>
