<svg width="360" height="800" viewBox="0 0 360 800" fill="none" xmlns="http://www.w3.org/2000/svg">
<rect width="360" height="800" rx="20" fill="url(#paint0_angular_64_735)"/>
<path d="M237.87 358.579H230.322V351.031C230.322 347.694 228.997 344.494 226.637 342.135C224.278 339.776 221.078 338.45 217.741 338.45H205.161V330.902C205.161 330.235 204.896 329.595 204.424 329.123C203.952 328.651 203.312 328.386 202.645 328.386H182.516V322.976C184.887 322.364 186.954 320.907 188.329 318.88C189.704 316.852 190.292 314.393 189.984 311.963C189.675 309.533 188.491 307.299 186.653 305.679C184.815 304.06 182.449 303.167 179.999 303.167C177.55 303.167 175.184 304.06 173.346 305.679C171.508 307.299 170.324 309.533 170.015 311.963C169.706 314.393 170.295 316.852 171.67 318.88C173.044 320.907 175.111 322.364 177.483 322.976V328.386H157.354C156.687 328.386 156.047 328.651 155.575 329.123C155.103 329.595 154.838 330.235 154.838 330.902V338.45H142.257C138.921 338.45 135.721 339.776 133.362 342.135C131.002 344.494 129.677 347.694 129.677 351.031V358.579H122.128C120.127 358.579 118.207 359.375 116.791 360.79C115.375 362.206 114.58 364.126 114.58 366.128V396.321C114.58 398.323 115.375 400.243 116.791 401.659C118.207 403.074 120.127 403.87 122.128 403.87H129.677V411.418C129.677 414.755 131.002 417.955 133.362 420.314C135.721 422.673 138.921 423.999 142.257 423.999H217.741C221.078 423.999 224.278 422.673 226.637 420.314C228.997 417.955 230.322 414.755 230.322 411.418V403.87H237.87C239.872 403.87 241.792 403.074 243.208 401.659C244.624 400.243 245.419 398.323 245.419 396.321V366.128C245.419 364.126 244.624 362.206 243.208 360.79C241.792 359.375 239.872 358.579 237.87 358.579ZM174.967 313.289C174.967 312.294 175.262 311.321 175.815 310.493C176.368 309.666 177.154 309.021 178.074 308.64C178.993 308.259 180.005 308.159 180.981 308.353C181.957 308.548 182.854 309.027 183.558 309.731C184.262 310.434 184.741 311.331 184.935 312.307C185.129 313.283 185.03 314.295 184.649 315.215C184.268 316.134 183.623 316.92 182.795 317.473C181.968 318.026 180.995 318.321 179.999 318.321C178.665 318.321 177.385 317.791 176.441 316.847C175.497 315.904 174.967 314.624 174.967 313.289ZM122.128 398.837C121.461 398.837 120.821 398.572 120.349 398.1C119.877 397.629 119.612 396.989 119.612 396.321V366.128C119.612 365.46 119.877 364.82 120.349 364.348C120.821 363.877 121.461 363.612 122.128 363.612H129.677V398.837H122.128ZM159.87 333.418H200.128V338.45H159.87V333.418ZM225.29 411.418C225.29 413.42 224.494 415.34 223.079 416.756C221.663 418.171 219.743 418.966 217.741 418.966H142.257C140.256 418.966 138.336 418.171 136.92 416.756C135.504 415.34 134.709 413.42 134.709 411.418V351.031C134.709 349.029 135.504 347.109 136.92 345.693C138.336 344.278 140.256 343.483 142.257 343.483H217.741C219.743 343.483 221.663 344.278 223.079 345.693C224.494 347.109 225.29 349.029 225.29 351.031V411.418ZM240.387 396.321C240.387 396.989 240.121 397.629 239.65 398.1C239.178 398.572 238.538 398.837 237.87 398.837H230.322V363.612H237.87C238.538 363.612 239.178 363.877 239.65 364.348C240.121 364.82 240.387 365.46 240.387 366.128V396.321Z" fill="white"/>
<path d="M202.644 383.742H157.354C156.687 383.742 156.047 384.007 155.575 384.479C155.103 384.951 154.838 385.591 154.838 386.258V388.775C154.838 395.448 157.489 401.848 162.207 406.566C166.926 411.285 173.326 413.936 179.999 413.936C186.672 413.936 193.072 411.285 197.791 406.566C202.51 401.848 205.16 395.448 205.16 388.775V386.258C205.16 385.591 204.895 384.951 204.424 384.479C203.952 384.007 203.312 383.742 202.644 383.742ZM179.999 408.904C174.661 408.904 169.541 406.783 165.766 403.008C161.991 399.233 159.87 394.113 159.87 388.775H200.128C200.128 394.113 198.007 399.233 194.233 403.008C190.458 406.783 185.338 408.904 179.999 408.904Z" fill="white"/>
<path d="M164.902 368.645C164.902 366.655 164.312 364.709 163.206 363.054C162.1 361.399 160.529 360.109 158.689 359.347C156.85 358.585 154.827 358.386 152.874 358.774C150.922 359.162 149.129 360.121 147.721 361.529C146.314 362.936 145.355 364.729 144.967 366.682C144.578 368.634 144.778 370.658 145.54 372.497C146.301 374.336 147.591 375.908 149.246 377.014C150.902 378.12 152.847 378.71 154.838 378.71C157.507 378.71 160.067 377.649 161.955 375.762C163.842 373.875 164.902 371.315 164.902 368.645ZM149.806 368.645C149.806 367.65 150.101 366.677 150.654 365.85C151.207 365.022 151.993 364.377 152.912 363.996C153.832 363.615 154.844 363.516 155.82 363.71C156.796 363.904 157.693 364.383 158.396 365.087C159.1 365.791 159.579 366.687 159.774 367.664C159.968 368.64 159.868 369.652 159.487 370.571C159.106 371.491 158.461 372.277 157.634 372.829C156.806 373.382 155.833 373.678 154.838 373.678C153.503 373.678 152.223 373.147 151.28 372.204C150.336 371.26 149.806 369.98 149.806 368.645Z" fill="white"/>
<path d="M205.16 358.581C203.17 358.581 201.224 359.171 199.569 360.277C197.914 361.383 196.624 362.955 195.862 364.794C195.1 366.633 194.901 368.656 195.289 370.609C195.677 372.561 196.636 374.354 198.044 375.762C199.451 377.17 201.244 378.128 203.197 378.516C205.149 378.905 207.173 378.705 209.012 377.944C210.851 377.182 212.423 375.892 213.529 374.237C214.634 372.582 215.225 370.636 215.225 368.645C215.225 365.976 214.164 363.416 212.277 361.529C210.389 359.641 207.83 358.581 205.16 358.581ZM205.16 373.678C204.165 373.678 203.192 373.382 202.364 372.829C201.537 372.276 200.892 371.491 200.511 370.571C200.13 369.652 200.03 368.64 200.225 367.664C200.419 366.687 200.898 365.791 201.602 365.087C202.306 364.383 203.202 363.904 204.178 363.71C205.155 363.516 206.166 363.615 207.086 363.996C208.006 364.377 208.791 365.022 209.344 365.849C209.897 366.677 210.192 367.65 210.192 368.645C210.192 369.98 209.662 371.26 208.719 372.204C207.775 373.147 206.495 373.678 205.16 373.678Z" fill="white"/>
<path d="M140.472 322.6C140.705 322.838 140.983 323.027 141.289 323.156C141.596 323.286 141.925 323.353 142.258 323.355C142.925 323.355 143.565 323.09 144.037 322.618C144.509 322.146 144.774 321.506 144.774 320.839V313.29H159.871C161.873 313.29 163.793 312.495 165.208 311.079C166.624 309.664 167.419 307.744 167.419 305.742V275.548C167.419 273.546 166.624 271.626 165.208 270.211C163.793 268.795 161.873 268 159.871 268H109.548C107.546 268 105.626 268.795 104.211 270.211C102.795 271.626 102 273.546 102 275.548V305.742C102 307.744 102.795 309.664 104.211 311.079C105.626 312.495 107.546 313.29 109.548 313.29H131.162L140.472 322.6ZM107.032 305.742V275.548C107.032 274.881 107.297 274.241 107.769 273.769C108.241 273.297 108.881 273.032 109.548 273.032H159.871C160.538 273.032 161.178 273.297 161.65 273.769C162.122 274.241 162.387 274.881 162.387 275.548V305.742C162.387 306.409 162.122 307.049 161.65 307.521C161.178 307.993 160.538 308.258 159.871 308.258H142.258C141.591 308.258 140.951 308.523 140.479 308.995C140.007 309.467 139.742 310.107 139.742 310.774V314.75L133.98 308.988C133.745 308.755 133.466 308.57 133.16 308.445C132.853 308.32 132.525 308.256 132.194 308.258H109.548C108.881 308.258 108.241 307.993 107.769 307.521C107.297 307.049 107.032 306.409 107.032 305.742Z" fill="white"/>
<path d="M250.451 278.065H200.128C198.127 278.065 196.207 278.861 194.791 280.276C193.375 281.692 192.58 283.612 192.58 285.614V315.807C192.58 317.809 193.375 319.729 194.791 321.145C196.207 322.56 198.127 323.356 200.128 323.356H215.225V330.904C215.225 331.571 215.49 332.211 215.962 332.683C216.434 333.155 217.074 333.42 217.741 333.42C218.074 333.419 218.404 333.351 218.71 333.222C219.017 333.092 219.295 332.903 219.528 332.665L228.837 323.356H250.451C252.453 323.356 254.373 322.56 255.789 321.145C257.204 319.729 257.999 317.809 257.999 315.807V285.614C257.999 283.612 257.204 281.692 255.789 280.276C254.373 278.861 252.453 278.065 250.451 278.065ZM252.967 315.807C252.967 316.475 252.702 317.115 252.23 317.586C251.758 318.058 251.118 318.323 250.451 318.323H227.806C227.475 318.321 227.146 318.385 226.84 318.51C226.533 318.635 226.255 318.82 226.019 319.053L220.257 324.815V320.84C220.257 320.172 219.992 319.532 219.521 319.06C219.049 318.588 218.409 318.323 217.741 318.323H200.128C199.461 318.323 198.821 318.058 198.349 317.586C197.877 317.115 197.612 316.475 197.612 315.807V285.614C197.612 284.946 197.877 284.306 198.349 283.835C198.821 283.363 199.461 283.098 200.128 283.098H250.451C251.118 283.098 251.758 283.363 252.23 283.835C252.702 284.306 252.967 284.946 252.967 285.614V315.807Z" fill="white"/>
<path d="M112.064 278.065H157.355V283.098H112.064V278.065Z" fill="white"/>
<path d="M112.064 298.192H157.355V303.225H112.064V298.192Z" fill="white"/>
<path d="M117.096 288.131H152.322V293.163H117.096V288.131Z" fill="white"/>
<path d="M202.646 288.131H247.937V293.163H202.646V288.131Z" fill="white"/>
<path d="M202.646 308.258H247.937V313.29H202.646V308.258Z" fill="white"/>
<path d="M207.678 298.192H242.904V303.225H207.678V298.192Z" fill="white"/>
<path d="M95.8398 615.719V617.662H88.291V615.719H95.8398ZM88.8965 609.781V624H86.4453V609.781H88.8965ZM97.7246 609.781V624H95.2832V609.781H97.7246ZM100.561 618.834V618.609C100.561 617.848 100.672 617.141 100.893 616.49C101.114 615.833 101.433 615.263 101.85 614.781C102.273 614.293 102.788 613.915 103.393 613.648C104.005 613.375 104.695 613.238 105.463 613.238C106.238 613.238 106.928 613.375 107.534 613.648C108.146 613.915 108.663 614.293 109.086 614.781C109.51 615.263 109.832 615.833 110.053 616.49C110.274 617.141 110.385 617.848 110.385 618.609V618.834C110.385 619.596 110.274 620.302 110.053 620.953C109.832 621.604 109.51 622.174 109.086 622.662C108.663 623.144 108.149 623.521 107.543 623.795C106.938 624.062 106.251 624.195 105.483 624.195C104.708 624.195 104.015 624.062 103.403 623.795C102.797 623.521 102.283 623.144 101.86 622.662C101.437 622.174 101.114 621.604 100.893 620.953C100.672 620.302 100.561 619.596 100.561 618.834ZM102.914 618.609V618.834C102.914 619.309 102.963 619.758 103.061 620.182C103.159 620.605 103.312 620.976 103.52 621.295C103.728 621.614 103.995 621.865 104.321 622.047C104.646 622.229 105.034 622.32 105.483 622.32C105.919 622.32 106.297 622.229 106.616 622.047C106.941 621.865 107.208 621.614 107.416 621.295C107.625 620.976 107.778 620.605 107.875 620.182C107.98 619.758 108.032 619.309 108.032 618.834V618.609C108.032 618.141 107.98 617.698 107.875 617.281C107.778 616.858 107.621 616.484 107.407 616.158C107.198 615.833 106.931 615.579 106.606 615.396C106.287 615.208 105.906 615.113 105.463 615.113C105.021 615.113 104.636 615.208 104.311 615.396C103.992 615.579 103.728 615.833 103.52 616.158C103.312 616.484 103.159 616.858 103.061 617.281C102.963 617.698 102.914 618.141 102.914 618.609ZM115.829 621.656L118.27 613.434H119.774L119.364 615.895L116.903 624H115.555L115.829 621.656ZM114.393 613.434L116.298 621.695L116.454 624H114.95L112.089 613.434H114.393ZM122.059 621.598L123.905 613.434H126.2L123.348 624H121.845L122.059 621.598ZM120.028 613.434L122.44 621.559L122.743 624H121.395L118.905 615.885L118.495 613.434H120.028ZM138.298 622.32C138.683 622.32 139.028 622.245 139.334 622.096C139.646 621.939 139.897 621.725 140.086 621.451C140.281 621.178 140.388 620.862 140.408 620.504H142.625C142.612 621.188 142.41 621.809 142.019 622.369C141.629 622.929 141.111 623.375 140.466 623.707C139.822 624.033 139.109 624.195 138.328 624.195C137.52 624.195 136.817 624.059 136.218 623.785C135.619 623.505 135.121 623.121 134.724 622.633C134.327 622.145 134.028 621.581 133.826 620.943C133.63 620.305 133.533 619.622 133.533 618.893V618.551C133.533 617.822 133.63 617.138 133.826 616.5C134.028 615.855 134.327 615.289 134.724 614.801C135.121 614.312 135.619 613.932 136.218 613.658C136.817 613.378 137.517 613.238 138.318 613.238C139.164 613.238 139.907 613.408 140.545 613.746C141.183 614.078 141.684 614.544 142.048 615.143C142.42 615.735 142.612 616.425 142.625 617.213H140.408C140.388 616.822 140.291 616.471 140.115 616.158C139.946 615.839 139.705 615.585 139.392 615.396C139.086 615.208 138.718 615.113 138.289 615.113C137.813 615.113 137.42 615.211 137.107 615.406C136.795 615.595 136.55 615.855 136.375 616.188C136.199 616.513 136.072 616.881 135.994 617.291C135.922 617.695 135.886 618.115 135.886 618.551V618.893C135.886 619.329 135.922 619.752 135.994 620.162C136.065 620.572 136.189 620.94 136.365 621.266C136.547 621.585 136.795 621.842 137.107 622.037C137.42 622.226 137.817 622.32 138.298 622.32ZM150.988 621.881V616.842C150.988 616.464 150.92 616.139 150.783 615.865C150.646 615.592 150.438 615.38 150.158 615.23C149.885 615.081 149.54 615.006 149.123 615.006C148.739 615.006 148.407 615.071 148.127 615.201C147.847 615.331 147.629 615.507 147.473 615.729C147.316 615.95 147.238 616.201 147.238 616.48H144.895C144.895 616.064 144.995 615.66 145.197 615.27C145.399 614.879 145.692 614.531 146.076 614.225C146.46 613.919 146.919 613.678 147.453 613.502C147.987 613.326 148.586 613.238 149.25 613.238C150.044 613.238 150.747 613.372 151.359 613.639C151.978 613.906 152.463 614.309 152.814 614.85C153.173 615.383 153.352 616.054 153.352 616.861V621.559C153.352 622.04 153.384 622.473 153.449 622.857C153.521 623.235 153.622 623.564 153.752 623.844V624H151.34C151.229 623.746 151.141 623.424 151.076 623.033C151.018 622.636 150.988 622.252 150.988 621.881ZM151.33 617.574L151.35 619.029H149.66C149.224 619.029 148.84 619.072 148.508 619.156C148.176 619.234 147.899 619.352 147.678 619.508C147.456 619.664 147.29 619.853 147.18 620.074C147.069 620.296 147.014 620.546 147.014 620.826C147.014 621.106 147.079 621.363 147.209 621.598C147.339 621.826 147.528 622.005 147.775 622.135C148.029 622.265 148.335 622.33 148.693 622.33C149.175 622.33 149.595 622.232 149.953 622.037C150.318 621.835 150.604 621.591 150.812 621.305C151.021 621.012 151.132 620.735 151.145 620.475L151.906 621.52C151.828 621.786 151.695 622.073 151.506 622.379C151.317 622.685 151.07 622.978 150.764 623.258C150.464 623.531 150.103 623.756 149.68 623.932C149.263 624.107 148.781 624.195 148.234 624.195C147.544 624.195 146.929 624.059 146.389 623.785C145.848 623.505 145.425 623.131 145.119 622.662C144.813 622.187 144.66 621.65 144.66 621.051C144.66 620.491 144.764 619.996 144.973 619.566C145.188 619.13 145.5 618.766 145.91 618.473C146.327 618.18 146.835 617.958 147.434 617.809C148.033 617.652 148.716 617.574 149.484 617.574H151.33ZM158.746 615.689V624H156.393V613.434H158.61L158.746 615.689ZM158.327 618.326L157.565 618.316C157.571 617.568 157.676 616.881 157.877 616.256C158.086 615.631 158.372 615.094 158.737 614.645C159.108 614.195 159.551 613.85 160.065 613.609C160.579 613.362 161.152 613.238 161.784 613.238C162.291 613.238 162.75 613.31 163.161 613.453C163.577 613.59 163.932 613.814 164.225 614.127C164.524 614.439 164.752 614.846 164.909 615.348C165.065 615.842 165.143 616.451 165.143 617.174V624H162.78V617.164C162.78 616.656 162.705 616.256 162.555 615.963C162.412 615.663 162.2 615.452 161.92 615.328C161.647 615.198 161.305 615.133 160.895 615.133C160.491 615.133 160.13 615.217 159.811 615.387C159.492 615.556 159.222 615.787 159 616.08C158.786 616.373 158.62 616.712 158.502 617.096C158.385 617.48 158.327 617.89 158.327 618.326ZM176.577 609.781V624H174.126V609.781H176.577ZM187.895 609V624H185.551V609H187.895ZM187.484 618.326L186.723 618.316C186.729 617.587 186.83 616.913 187.025 616.295C187.227 615.676 187.507 615.139 187.865 614.684C188.23 614.221 188.666 613.867 189.174 613.619C189.682 613.365 190.245 613.238 190.863 613.238C191.384 613.238 191.853 613.31 192.27 613.453C192.693 613.596 193.057 613.827 193.363 614.146C193.669 614.459 193.9 614.869 194.057 615.377C194.219 615.878 194.301 616.49 194.301 617.213V624H191.938V617.193C191.938 616.686 191.863 616.282 191.713 615.982C191.57 615.683 191.358 615.468 191.078 615.338C190.798 615.201 190.456 615.133 190.053 615.133C189.63 615.133 189.255 615.217 188.93 615.387C188.611 615.556 188.344 615.787 188.129 616.08C187.914 616.373 187.751 616.712 187.641 617.096C187.536 617.48 187.484 617.89 187.484 618.326ZM201.942 624.195C201.161 624.195 200.454 624.068 199.823 623.814C199.198 623.554 198.664 623.193 198.221 622.73C197.785 622.268 197.45 621.725 197.215 621.1C196.981 620.475 196.864 619.801 196.864 619.078V618.688C196.864 617.861 196.984 617.112 197.225 616.441C197.466 615.771 197.801 615.198 198.231 614.723C198.661 614.241 199.168 613.873 199.754 613.619C200.34 613.365 200.975 613.238 201.659 613.238C202.414 613.238 203.075 613.365 203.641 613.619C204.207 613.873 204.676 614.231 205.047 614.693C205.425 615.149 205.705 615.693 205.887 616.324C206.076 616.956 206.17 617.652 206.17 618.414V619.42H198.006V617.73H203.846V617.545C203.833 617.122 203.748 616.725 203.592 616.354C203.442 615.982 203.211 615.683 202.899 615.455C202.586 615.227 202.17 615.113 201.649 615.113C201.258 615.113 200.91 615.198 200.604 615.367C200.304 615.53 200.054 615.768 199.852 616.08C199.65 616.393 199.494 616.77 199.383 617.213C199.279 617.649 199.227 618.141 199.227 618.688V619.078C199.227 619.54 199.289 619.97 199.412 620.367C199.543 620.758 199.732 621.1 199.979 621.393C200.226 621.686 200.526 621.917 200.877 622.086C201.229 622.249 201.629 622.33 202.079 622.33C202.645 622.33 203.149 622.216 203.592 621.988C204.035 621.76 204.419 621.438 204.745 621.021L205.985 622.223C205.757 622.555 205.461 622.874 205.096 623.18C204.732 623.479 204.286 623.723 203.758 623.912C203.237 624.101 202.632 624.195 201.942 624.195ZM211.126 609V624H208.762V609H211.126ZM216.667 615.465V628.062H214.314V613.434H216.482L216.667 615.465ZM223.552 618.619V618.824C223.552 619.592 223.461 620.305 223.279 620.963C223.103 621.614 222.839 622.184 222.488 622.672C222.142 623.154 221.716 623.528 221.208 623.795C220.7 624.062 220.114 624.195 219.45 624.195C218.793 624.195 218.217 624.075 217.722 623.834C217.234 623.587 216.82 623.238 216.482 622.789C216.143 622.34 215.87 621.812 215.661 621.207C215.46 620.595 215.316 619.924 215.232 619.195V618.404C215.316 617.63 215.46 616.926 215.661 616.295C215.87 615.663 216.143 615.12 216.482 614.664C216.82 614.208 217.234 613.857 217.722 613.609C218.21 613.362 218.78 613.238 219.431 613.238C220.095 613.238 220.684 613.368 221.198 613.629C221.713 613.883 222.146 614.247 222.497 614.723C222.849 615.191 223.113 615.758 223.288 616.422C223.464 617.079 223.552 617.812 223.552 618.619ZM221.198 618.824V618.619C221.198 618.131 221.153 617.678 221.062 617.262C220.971 616.839 220.827 616.467 220.632 616.148C220.437 615.829 220.186 615.582 219.88 615.406C219.581 615.224 219.219 615.133 218.796 615.133C218.379 615.133 218.021 615.204 217.722 615.348C217.422 615.484 217.172 615.676 216.97 615.924C216.768 616.171 216.612 616.461 216.501 616.793C216.39 617.118 216.312 617.473 216.267 617.857V619.752C216.345 620.221 216.478 620.65 216.667 621.041C216.856 621.432 217.123 621.744 217.468 621.979C217.82 622.206 218.269 622.32 218.816 622.32C219.239 622.32 219.6 622.229 219.9 622.047C220.199 621.865 220.443 621.614 220.632 621.295C220.827 620.969 220.971 620.595 221.062 620.172C221.153 619.749 221.198 619.299 221.198 618.824ZM234.801 622.848L237.672 613.434H240.191L235.953 625.611C235.855 625.872 235.729 626.155 235.572 626.461C235.416 626.767 235.211 627.057 234.957 627.33C234.71 627.61 234.4 627.835 234.029 628.004C233.658 628.18 233.209 628.268 232.682 628.268C232.473 628.268 232.271 628.248 232.076 628.209C231.887 628.176 231.708 628.141 231.539 628.102L231.529 626.305C231.594 626.311 231.673 626.318 231.764 626.324C231.861 626.331 231.939 626.334 231.998 626.334C232.389 626.334 232.714 626.285 232.975 626.188C233.235 626.096 233.447 625.947 233.609 625.738C233.779 625.53 233.922 625.25 234.039 624.898L234.801 622.848ZM233.18 613.434L235.689 621.344L236.109 623.824L234.479 624.244L230.641 613.434H233.18ZM241.534 618.834V618.609C241.534 617.848 241.644 617.141 241.866 616.49C242.087 615.833 242.406 615.263 242.823 614.781C243.246 614.293 243.76 613.915 244.366 613.648C244.978 613.375 245.668 613.238 246.436 613.238C247.211 613.238 247.901 613.375 248.506 613.648C249.118 613.915 249.636 614.293 250.059 614.781C250.482 615.263 250.804 615.833 251.026 616.49C251.247 617.141 251.358 617.848 251.358 618.609V618.834C251.358 619.596 251.247 620.302 251.026 620.953C250.804 621.604 250.482 622.174 250.059 622.662C249.636 623.144 249.121 623.521 248.516 623.795C247.911 624.062 247.224 624.195 246.455 624.195C245.681 624.195 244.987 624.062 244.375 623.795C243.77 623.521 243.256 623.144 242.832 622.662C242.409 622.174 242.087 621.604 241.866 620.953C241.644 620.302 241.534 619.596 241.534 618.834ZM243.887 618.609V618.834C243.887 619.309 243.936 619.758 244.034 620.182C244.131 620.605 244.284 620.976 244.493 621.295C244.701 621.614 244.968 621.865 245.293 622.047C245.619 622.229 246.006 622.32 246.455 622.32C246.892 622.32 247.269 622.229 247.588 622.047C247.914 621.865 248.181 621.614 248.389 621.295C248.597 620.976 248.75 620.605 248.848 620.182C248.952 619.758 249.004 619.309 249.004 618.834V618.609C249.004 618.141 248.952 617.698 248.848 617.281C248.75 616.858 248.594 616.484 248.379 616.158C248.171 615.833 247.904 615.579 247.579 615.396C247.26 615.208 246.879 615.113 246.436 615.113C245.993 615.113 245.609 615.208 245.284 615.396C244.965 615.579 244.701 615.833 244.493 616.158C244.284 616.484 244.131 616.858 244.034 617.281C243.936 617.698 243.887 618.141 243.887 618.609ZM260.288 621.51V613.434H262.651V624H260.425L260.288 621.51ZM260.62 619.312L261.411 619.293C261.411 620.003 261.333 620.657 261.177 621.256C261.02 621.848 260.779 622.366 260.454 622.809C260.128 623.245 259.712 623.587 259.204 623.834C258.696 624.075 258.087 624.195 257.378 624.195C256.863 624.195 256.391 624.12 255.962 623.971C255.532 623.821 255.161 623.59 254.848 623.277C254.542 622.965 254.305 622.558 254.136 622.057C253.966 621.555 253.882 620.956 253.882 620.26V613.434H256.235V620.279C256.235 620.663 256.281 620.986 256.372 621.246C256.463 621.5 256.587 621.705 256.743 621.861C256.899 622.018 257.082 622.128 257.29 622.193C257.498 622.258 257.72 622.291 257.954 622.291C258.624 622.291 259.152 622.161 259.536 621.9C259.927 621.633 260.203 621.275 260.366 620.826C260.535 620.377 260.62 619.872 260.62 619.312ZM270.068 619.811H267.89C267.896 619.205 267.948 618.697 268.046 618.287C268.144 617.87 268.307 617.493 268.534 617.154C268.769 616.816 269.078 616.458 269.462 616.08C269.762 615.794 270.032 615.523 270.273 615.27C270.514 615.009 270.706 614.736 270.849 614.449C270.992 614.156 271.064 613.821 271.064 613.443C271.064 613.033 270.995 612.685 270.859 612.398C270.722 612.112 270.52 611.894 270.253 611.744C269.993 611.594 269.667 611.52 269.277 611.52C268.951 611.52 268.645 611.585 268.359 611.715C268.072 611.839 267.841 612.034 267.665 612.301C267.489 612.561 267.395 612.906 267.382 613.336H265.029C265.042 612.516 265.237 611.826 265.614 611.266C265.992 610.706 266.5 610.286 267.138 610.006C267.776 609.726 268.489 609.586 269.277 609.586C270.149 609.586 270.894 609.736 271.513 610.035C272.131 610.328 272.603 610.758 272.929 611.324C273.261 611.884 273.427 612.561 273.427 613.355C273.427 613.928 273.313 614.449 273.085 614.918C272.857 615.38 272.561 615.813 272.196 616.217C271.832 616.614 271.438 617.011 271.015 617.408C270.65 617.74 270.403 618.102 270.273 618.492C270.142 618.876 270.074 619.316 270.068 619.811ZM267.695 622.857C267.695 622.506 267.815 622.21 268.056 621.969C268.297 621.721 268.626 621.598 269.042 621.598C269.459 621.598 269.788 621.721 270.029 621.969C270.269 622.21 270.39 622.506 270.39 622.857C270.39 623.209 270.269 623.508 270.029 623.756C269.788 623.997 269.459 624.117 269.042 624.117C268.626 624.117 268.297 623.997 268.056 623.756C267.815 623.508 267.695 623.209 267.695 622.857Z" fill="white"/>
<rect x="38" y="666" width="284" height="50" rx="20" fill="white"/>
<path d="M112.229 693.406C112.229 693.074 112.176 692.781 112.072 692.527C111.975 692.267 111.799 692.033 111.545 691.824C111.298 691.616 110.952 691.417 110.51 691.229C110.074 691.04 109.52 690.848 108.85 690.652C108.146 690.444 107.512 690.213 106.945 689.959C106.379 689.699 105.894 689.402 105.49 689.07C105.087 688.738 104.777 688.357 104.562 687.928C104.348 687.498 104.24 687.007 104.24 686.453C104.24 685.9 104.354 685.389 104.582 684.92C104.81 684.451 105.135 684.044 105.559 683.699C105.988 683.348 106.499 683.074 107.092 682.879C107.684 682.684 108.345 682.586 109.074 682.586C110.142 682.586 111.047 682.791 111.789 683.201C112.538 683.605 113.107 684.135 113.498 684.793C113.889 685.444 114.084 686.141 114.084 686.883H112.209C112.209 686.349 112.095 685.877 111.867 685.467C111.639 685.05 111.294 684.725 110.832 684.49C110.37 684.249 109.784 684.129 109.074 684.129C108.404 684.129 107.85 684.23 107.414 684.432C106.978 684.633 106.652 684.907 106.438 685.252C106.229 685.597 106.125 685.991 106.125 686.434C106.125 686.733 106.187 687.007 106.311 687.254C106.441 687.495 106.639 687.719 106.906 687.928C107.18 688.136 107.525 688.328 107.941 688.504C108.365 688.68 108.869 688.849 109.455 689.012C110.262 689.24 110.959 689.493 111.545 689.773C112.131 690.053 112.613 690.369 112.99 690.721C113.374 691.066 113.658 691.46 113.84 691.902C114.029 692.339 114.123 692.833 114.123 693.387C114.123 693.966 114.006 694.49 113.771 694.959C113.537 695.428 113.202 695.828 112.766 696.16C112.329 696.492 111.805 696.749 111.193 696.932C110.588 697.107 109.911 697.195 109.162 697.195C108.505 697.195 107.857 697.104 107.219 696.922C106.587 696.74 106.011 696.466 105.49 696.102C104.976 695.737 104.562 695.288 104.25 694.754C103.944 694.214 103.791 693.589 103.791 692.879H105.666C105.666 693.367 105.76 693.787 105.949 694.139C106.138 694.484 106.395 694.77 106.721 694.998C107.053 695.226 107.427 695.395 107.844 695.506C108.267 695.61 108.706 695.662 109.162 695.662C109.82 695.662 110.376 695.571 110.832 695.389C111.288 695.206 111.633 694.946 111.867 694.607C112.108 694.269 112.229 693.868 112.229 693.406ZM121.276 686.434V687.82H115.563V686.434H121.276ZM117.496 683.865H119.303V694.383C119.303 694.741 119.358 695.011 119.469 695.193C119.58 695.376 119.723 695.496 119.899 695.555C120.075 695.613 120.263 695.643 120.465 695.643C120.615 695.643 120.771 695.63 120.934 695.604C121.103 695.571 121.23 695.545 121.315 695.525L121.325 697C121.181 697.046 120.993 697.088 120.758 697.127C120.53 697.173 120.254 697.195 119.928 697.195C119.485 697.195 119.079 697.107 118.707 696.932C118.336 696.756 118.04 696.463 117.819 696.053C117.604 695.636 117.496 695.076 117.496 694.373V683.865ZM130.225 695.193V689.754C130.225 689.337 130.141 688.976 129.971 688.67C129.809 688.357 129.561 688.117 129.229 687.947C128.897 687.778 128.487 687.693 127.999 687.693C127.543 687.693 127.143 687.771 126.798 687.928C126.459 688.084 126.192 688.289 125.997 688.543C125.808 688.797 125.714 689.07 125.714 689.363H123.907C123.907 688.986 124.005 688.611 124.2 688.24C124.395 687.869 124.675 687.534 125.04 687.234C125.411 686.928 125.854 686.688 126.368 686.512C126.889 686.329 127.468 686.238 128.106 686.238C128.874 686.238 129.552 686.368 130.138 686.629C130.73 686.889 131.192 687.283 131.524 687.811C131.863 688.331 132.032 688.986 132.032 689.773V694.695C132.032 695.047 132.061 695.421 132.12 695.818C132.185 696.215 132.279 696.557 132.403 696.844V697H130.518C130.427 696.792 130.356 696.515 130.304 696.17C130.251 695.818 130.225 695.493 130.225 695.193ZM130.538 690.594L130.557 691.863H128.731C128.217 691.863 127.758 691.906 127.354 691.99C126.951 692.068 126.612 692.189 126.339 692.352C126.065 692.514 125.857 692.719 125.714 692.967C125.57 693.208 125.499 693.491 125.499 693.816C125.499 694.148 125.574 694.451 125.723 694.725C125.873 694.998 126.098 695.216 126.397 695.379C126.703 695.535 127.078 695.613 127.52 695.613C128.074 695.613 128.562 695.496 128.985 695.262C129.408 695.027 129.744 694.741 129.991 694.402C130.245 694.064 130.382 693.735 130.401 693.416L131.173 694.285C131.127 694.559 131.003 694.861 130.802 695.193C130.6 695.525 130.33 695.844 129.991 696.15C129.659 696.45 129.262 696.701 128.8 696.902C128.344 697.098 127.83 697.195 127.257 697.195C126.54 697.195 125.912 697.055 125.372 696.775C124.838 696.495 124.421 696.121 124.122 695.652C123.829 695.177 123.682 694.646 123.682 694.061C123.682 693.494 123.793 692.996 124.014 692.566C124.236 692.13 124.555 691.769 124.971 691.482C125.388 691.189 125.889 690.968 126.475 690.818C127.061 690.669 127.716 690.594 128.438 690.594H130.538ZM137.28 688.094V697H135.474V686.434H137.232L137.28 688.094ZM140.581 686.375L140.571 688.055C140.422 688.022 140.279 688.003 140.142 687.996C140.012 687.983 139.862 687.977 139.693 687.977C139.276 687.977 138.908 688.042 138.589 688.172C138.27 688.302 138 688.484 137.779 688.719C137.557 688.953 137.381 689.233 137.251 689.559C137.127 689.878 137.046 690.229 137.007 690.613L136.499 690.906C136.499 690.268 136.561 689.669 136.685 689.109C136.815 688.549 137.014 688.055 137.28 687.625C137.547 687.189 137.886 686.85 138.296 686.609C138.713 686.362 139.208 686.238 139.78 686.238C139.911 686.238 140.06 686.255 140.23 686.287C140.399 686.313 140.516 686.342 140.581 686.375ZM147.763 686.434V687.82H142.05V686.434H147.763ZM143.984 683.865H145.791V694.383C145.791 694.741 145.846 695.011 145.957 695.193C146.067 695.376 146.211 695.496 146.386 695.555C146.562 695.613 146.751 695.643 146.953 695.643C147.102 695.643 147.259 695.63 147.421 695.604C147.591 695.571 147.718 695.545 147.802 695.525L147.812 697C147.669 697.046 147.48 697.088 147.246 697.127C147.018 697.173 146.741 697.195 146.416 697.195C145.973 697.195 145.566 697.107 145.195 696.932C144.824 696.756 144.528 696.463 144.306 696.053C144.091 695.636 143.984 695.076 143.984 694.373V683.865ZM162.274 695.193V689.754C162.274 689.337 162.189 688.976 162.02 688.67C161.857 688.357 161.61 688.117 161.278 687.947C160.946 687.778 160.536 687.693 160.047 687.693C159.592 687.693 159.191 687.771 158.846 687.928C158.508 688.084 158.241 688.289 158.045 688.543C157.857 688.797 157.762 689.07 157.762 689.363H155.955C155.955 688.986 156.053 688.611 156.248 688.24C156.444 687.869 156.724 687.534 157.088 687.234C157.459 686.928 157.902 686.688 158.416 686.512C158.937 686.329 159.517 686.238 160.155 686.238C160.923 686.238 161.6 686.368 162.186 686.629C162.778 686.889 163.241 687.283 163.573 687.811C163.911 688.331 164.08 688.986 164.08 689.773V694.695C164.08 695.047 164.11 695.421 164.168 695.818C164.233 696.215 164.328 696.557 164.452 696.844V697H162.567C162.476 696.792 162.404 696.515 162.352 696.17C162.3 695.818 162.274 695.493 162.274 695.193ZM162.586 690.594L162.606 691.863H160.78C160.265 691.863 159.806 691.906 159.403 691.99C158.999 692.068 158.661 692.189 158.387 692.352C158.114 692.514 157.905 692.719 157.762 692.967C157.619 693.208 157.547 693.491 157.547 693.816C157.547 694.148 157.622 694.451 157.772 694.725C157.922 694.998 158.146 695.216 158.446 695.379C158.752 695.535 159.126 695.613 159.569 695.613C160.122 695.613 160.61 695.496 161.034 695.262C161.457 695.027 161.792 694.741 162.039 694.402C162.293 694.064 162.43 693.735 162.45 693.416L163.221 694.285C163.176 694.559 163.052 694.861 162.85 695.193C162.648 695.525 162.378 695.844 162.039 696.15C161.707 696.45 161.31 696.701 160.848 696.902C160.392 697.098 159.878 697.195 159.305 697.195C158.589 697.195 157.961 697.055 157.42 696.775C156.886 696.495 156.47 696.121 156.17 695.652C155.877 695.177 155.731 694.646 155.731 694.061C155.731 693.494 155.842 692.996 156.063 692.566C156.284 692.13 156.603 691.769 157.02 691.482C157.437 691.189 157.938 690.968 158.524 690.818C159.11 690.669 159.764 690.594 160.487 690.594H162.586ZM174.89 688.689V697H173.083V686.434H174.792L174.89 688.689ZM174.46 691.316L173.708 691.287C173.715 690.564 173.822 689.897 174.03 689.285C174.239 688.667 174.532 688.13 174.909 687.674C175.287 687.218 175.736 686.867 176.257 686.619C176.784 686.365 177.367 686.238 178.005 686.238C178.526 686.238 178.995 686.31 179.411 686.453C179.828 686.59 180.183 686.811 180.476 687.117C180.775 687.423 181.003 687.82 181.159 688.309C181.316 688.79 181.394 689.38 181.394 690.076V697H179.577V690.057C179.577 689.503 179.496 689.061 179.333 688.729C179.17 688.39 178.933 688.146 178.62 687.996C178.308 687.84 177.924 687.762 177.468 687.762C177.019 687.762 176.609 687.856 176.238 688.045C175.873 688.234 175.557 688.494 175.29 688.826C175.03 689.158 174.825 689.539 174.675 689.969C174.532 690.392 174.46 690.841 174.46 691.316ZM189.123 697.195C188.387 697.195 187.72 697.072 187.121 696.824C186.528 696.57 186.017 696.215 185.588 695.76C185.164 695.304 184.839 694.764 184.611 694.139C184.383 693.514 184.269 692.83 184.269 692.088V691.678C184.269 690.818 184.396 690.053 184.65 689.383C184.904 688.706 185.249 688.133 185.685 687.664C186.121 687.195 186.616 686.84 187.17 686.6C187.723 686.359 188.296 686.238 188.888 686.238C189.643 686.238 190.295 686.368 190.841 686.629C191.395 686.889 191.847 687.254 192.199 687.723C192.55 688.185 192.811 688.732 192.98 689.363C193.149 689.988 193.234 690.672 193.234 691.414V692.225H185.343V690.75H191.427V690.613C191.401 690.145 191.304 689.689 191.134 689.246C190.972 688.803 190.711 688.439 190.353 688.152C189.995 687.866 189.507 687.723 188.888 687.723C188.478 687.723 188.101 687.811 187.755 687.986C187.41 688.156 187.114 688.41 186.867 688.748C186.619 689.087 186.427 689.5 186.291 689.988C186.154 690.477 186.086 691.04 186.086 691.678V692.088C186.086 692.589 186.154 693.061 186.291 693.504C186.434 693.94 186.639 694.324 186.906 694.656C187.179 694.988 187.508 695.249 187.892 695.438C188.283 695.626 188.726 695.721 189.22 695.721C189.858 695.721 190.399 695.59 190.841 695.33C191.284 695.07 191.671 694.721 192.004 694.285L193.097 695.154C192.869 695.499 192.58 695.828 192.228 696.141C191.877 696.453 191.444 696.707 190.929 696.902C190.421 697.098 189.819 697.195 189.123 697.195ZM198.619 695.125L201.334 686.434H202.525L202.291 688.162L199.527 697H198.365L198.619 695.125ZM196.793 686.434L199.107 695.223L199.273 697H198.053L194.986 686.434H196.793ZM205.123 695.154L207.33 686.434H209.127L206.061 697H204.85L205.123 695.154ZM202.789 686.434L205.445 694.979L205.748 697H204.596L201.754 688.143L201.52 686.434H202.789ZM221.372 695.711C221.802 695.711 222.199 695.623 222.563 695.447C222.928 695.271 223.227 695.031 223.462 694.725C223.696 694.412 223.83 694.057 223.862 693.66H225.581C225.548 694.285 225.337 694.868 224.946 695.408C224.562 695.942 224.057 696.375 223.432 696.707C222.807 697.033 222.121 697.195 221.372 697.195C220.578 697.195 219.884 697.055 219.292 696.775C218.706 696.495 218.218 696.111 217.827 695.623C217.443 695.135 217.153 694.575 216.958 693.943C216.769 693.305 216.675 692.632 216.675 691.922V691.512C216.675 690.802 216.769 690.132 216.958 689.5C217.153 688.862 217.443 688.299 217.827 687.811C218.218 687.322 218.706 686.938 219.292 686.658C219.884 686.378 220.578 686.238 221.372 686.238C222.199 686.238 222.921 686.408 223.54 686.746C224.158 687.078 224.643 687.534 224.995 688.113C225.353 688.686 225.548 689.337 225.581 690.066H223.862C223.83 689.63 223.706 689.236 223.491 688.885C223.283 688.533 222.996 688.253 222.632 688.045C222.274 687.83 221.854 687.723 221.372 687.723C220.818 687.723 220.353 687.833 219.975 688.055C219.604 688.27 219.308 688.562 219.087 688.934C218.872 689.298 218.716 689.705 218.618 690.154C218.527 690.597 218.481 691.049 218.481 691.512V691.922C218.481 692.384 218.527 692.84 218.618 693.289C218.709 693.738 218.862 694.145 219.077 694.51C219.298 694.874 219.595 695.167 219.966 695.389C220.343 695.604 220.812 695.711 221.372 695.711ZM230.019 682V697H228.212V682H230.019ZM229.589 691.316L228.837 691.287C228.844 690.564 228.951 689.897 229.159 689.285C229.368 688.667 229.661 688.13 230.038 687.674C230.416 687.218 230.865 686.867 231.386 686.619C231.913 686.365 232.496 686.238 233.134 686.238C233.655 686.238 234.124 686.31 234.54 686.453C234.957 686.59 235.312 686.811 235.605 687.117C235.904 687.423 236.132 687.82 236.288 688.309C236.445 688.79 236.523 689.38 236.523 690.076V697H234.706V690.057C234.706 689.503 234.625 689.061 234.462 688.729C234.299 688.39 234.062 688.146 233.749 687.996C233.437 687.84 233.053 687.762 232.597 687.762C232.148 687.762 231.738 687.856 231.366 688.045C231.002 688.234 230.686 688.494 230.419 688.826C230.159 689.158 229.954 689.539 229.804 689.969C229.661 690.392 229.589 690.841 229.589 691.316ZM246.058 695.193V689.754C246.058 689.337 245.974 688.976 245.804 688.67C245.642 688.357 245.394 688.117 245.062 687.947C244.73 687.778 244.32 687.693 243.832 687.693C243.376 687.693 242.976 687.771 242.63 687.928C242.292 688.084 242.025 688.289 241.83 688.543C241.641 688.797 241.546 689.07 241.546 689.363H239.74C239.74 688.986 239.837 688.611 240.033 688.24C240.228 687.869 240.508 687.534 240.873 687.234C241.244 686.928 241.686 686.688 242.201 686.512C242.722 686.329 243.301 686.238 243.939 686.238C244.707 686.238 245.384 686.368 245.97 686.629C246.563 686.889 247.025 687.283 247.357 687.811C247.696 688.331 247.865 688.986 247.865 689.773V694.695C247.865 695.047 247.894 695.421 247.953 695.818C248.018 696.215 248.112 696.557 248.236 696.844V697H246.351C246.26 696.792 246.188 696.515 246.136 696.17C246.084 695.818 246.058 695.493 246.058 695.193ZM246.371 690.594L246.39 691.863H244.564C244.05 691.863 243.591 691.906 243.187 691.99C242.783 692.068 242.445 692.189 242.171 692.352C241.898 692.514 241.69 692.719 241.546 692.967C241.403 693.208 241.332 693.491 241.332 693.816C241.332 694.148 241.407 694.451 241.556 694.725C241.706 694.998 241.931 695.216 242.23 695.379C242.536 695.535 242.91 695.613 243.353 695.613C243.907 695.613 244.395 695.496 244.818 695.262C245.241 695.027 245.576 694.741 245.824 694.402C246.078 694.064 246.214 693.735 246.234 693.416L247.005 694.285C246.96 694.559 246.836 694.861 246.634 695.193C246.433 695.525 246.162 695.844 245.824 696.15C245.492 696.45 245.095 696.701 244.632 696.902C244.177 697.098 243.662 697.195 243.089 697.195C242.373 697.195 241.745 697.055 241.205 696.775C240.671 696.495 240.254 696.121 239.955 695.652C239.662 695.177 239.515 694.646 239.515 694.061C239.515 693.494 239.626 692.996 239.847 692.566C240.069 692.13 240.388 691.769 240.804 691.482C241.221 691.189 241.722 690.968 242.308 690.818C242.894 690.669 243.548 690.594 244.271 690.594H246.371ZM255.73 686.434V687.82H250.018V686.434H255.73ZM251.951 683.865H253.758V694.383C253.758 694.741 253.813 695.011 253.924 695.193C254.035 695.376 254.178 695.496 254.354 695.555C254.529 695.613 254.718 695.643 254.92 695.643C255.07 695.643 255.226 695.63 255.389 695.604C255.558 695.571 255.685 695.545 255.77 695.525L255.779 697C255.636 697.046 255.447 697.088 255.213 697.127C254.985 697.173 254.708 697.195 254.383 697.195C253.94 697.195 253.533 697.107 253.162 696.932C252.791 696.756 252.495 696.463 252.273 696.053C252.059 695.636 251.951 695.076 251.951 694.373V683.865Z" fill="black"/>
<defs>
<radialGradient id="paint0_angular_64_735" cx="0" cy="0" r="1" gradientUnits="userSpaceOnUse" gradientTransform="translate(176.75 437.5) rotate(70.9355) scale(395.704 178.067)">
<stop offset="0.993877" stop-color="#FEBC04" stop-opacity="0.8"/>
<stop offset="0.9953" stop-color="#D70D09" stop-opacity="0.8"/>
</radialGradient>
</defs>
</svg>
