<svg width="33" height="49" viewBox="0 0 33 49" fill="none" xmlns="http://www.w3.org/2000/svg">
<path d="M12.548 44.056C12.548 45.1487 12.982 46.1966 13.7547 46.9693C14.5273 47.7419 15.5753 48.176 16.668 48.176C17.7607 48.176 18.8086 47.7419 19.5812 46.9693C20.3539 46.1966 20.788 45.1487 20.788 44.056C20.788 43.515 20.6814 42.9792 20.4744 42.4793C20.2673 41.9795 19.9638 41.5253 19.5812 41.1427C19.1987 40.7601 18.7445 40.4567 18.2446 40.2496C17.7448 40.0426 17.209 39.936 16.668 39.936C16.1269 39.936 15.5912 40.0426 15.0913 40.2496C14.5915 40.4567 14.1373 40.7601 13.7547 41.1427C13.3721 41.5253 13.0686 41.9795 12.8616 42.4793C12.6545 42.9792 12.548 43.515 12.548 44.056ZM23.928 28.504C29.724 25.312 32.668 20.684 32.668 14.752C32.668 4.564 24.632 0 16.668 0C8.91197 0 0.667969 5.636 0.667969 16.084C0.667969 17.1449 1.0894 18.1623 1.83954 18.9124C2.58969 19.6626 3.6071 20.084 4.66797 20.084C5.72883 20.084 6.74625 19.6626 7.4964 18.9124C8.24654 18.1623 8.66797 17.1449 8.66797 16.084C8.66797 10.528 12.816 8 16.668 8C19.656 8 24.668 8.876 24.668 14.752C24.668 16.836 24.12 19.268 20.072 21.5C17.32 23.008 12.668 26.924 12.668 32C12.668 33.0609 13.0894 34.0783 13.8395 34.8284C14.5897 35.5786 15.6071 36 16.668 36C17.7288 36 18.7463 35.5786 19.4964 34.8284C20.2465 34.0783 20.668 33.0609 20.668 32C20.668 31.256 22.248 29.428 23.928 28.504Z" fill="black"/>
</svg>
