<svg width="36" height="37" viewBox="0 0 36 37" fill="none" xmlns="http://www.w3.org/2000/svg">
<path d="M18 0.945312C8.05781 0.945312 0 8.80243 0 18.497C0 28.1916 8.05781 36.0487 18 36.0487C27.9422 36.0487 36 28.1916 36 18.497C36 8.80243 27.9422 0.945312 18 0.945312ZM29.2359 29.4462C27.7734 30.8723 26.0789 31.9898 24.1875 32.7646C22.2328 33.5736 20.1516 33.9781 18 33.9781C15.8555 33.9781 13.7742 33.5668 11.8125 32.7646C9.92109 31.983 8.21953 30.8654 6.76406 29.4462C5.30156 28.0202 4.15547 26.3678 3.36094 24.5235C2.53125 22.6175 2.10938 20.5881 2.10938 18.497C2.10938 16.4059 2.53125 14.3765 3.35391 12.4636C4.15547 10.6193 5.30156 8.96012 6.75703 7.5409C8.22656 6.11483 9.92109 4.99728 11.8125 4.21568C13.7742 3.41352 15.8555 3.00215 18 3.00215C20.1445 3.00215 22.2258 3.41352 24.1875 4.21568C26.0789 4.99728 27.7805 6.11483 29.2359 7.53405C30.6984 8.96012 31.8445 10.6124 32.6391 12.4567C33.4688 14.3628 33.8836 16.3922 33.8836 18.4901C33.8836 20.5813 33.4617 22.6107 32.6391 24.5235C31.8375 26.3678 30.6914 28.027 29.2359 29.4462Z" fill="white"/>
<path d="M23.5273 9.7207H12.4883C10.5688 9.7207 9.00781 11.2428 9.00781 13.1145V16.7002V23.8855C9.00781 25.7572 10.5688 27.2792 12.4883 27.2792H23.5273C25.4469 27.2792 27.0078 25.7572 27.0078 23.8855V16.6934V13.1076C27.0008 11.2428 25.4398 9.7207 23.5273 9.7207ZM24.5258 11.7433H24.9266V12.1272V14.7188L21.882 14.7257L21.875 11.7501L24.5258 11.7433ZM15.4344 16.6934C16.0109 15.9186 16.9461 15.4044 18.0008 15.4044C19.0555 15.4044 19.9906 15.9118 20.5672 16.6934C20.9469 17.2007 21.1648 17.8246 21.1648 18.4965C21.1648 20.1969 19.7445 21.5887 17.9938 21.5887C16.243 21.5887 14.8367 20.1969 14.8367 18.4965C14.8367 17.8246 15.0617 17.2007 15.4344 16.6934ZM25.25 23.8786C25.25 24.8042 24.4766 25.5584 23.5273 25.5584H12.4883C11.5391 25.5584 10.7656 24.8042 10.7656 23.8786V16.6934H13.4516C13.2195 17.2487 13.0859 17.8589 13.0859 18.4965C13.0859 21.143 15.2938 23.2958 18.0078 23.2958C20.7219 23.2958 22.9297 21.143 22.9297 18.4965C22.9297 17.8589 22.7961 17.2487 22.5641 16.6934H25.25V23.8786Z" fill="white"/>
</svg>
