<svg width="68" height="64" viewBox="0 0 68 64" fill="none" xmlns="http://www.w3.org/2000/svg">
<path d="M62.2923 17.787H50.9109C51.0375 17.6822 51.1673 17.5806 51.2905 17.4695C52.2759 16.6127 53.07 15.5661 53.6232 14.3952C54.1765 13.2242 54.4769 11.9542 54.5057 10.6645C54.5483 9.25352 54.2959 7.84894 53.7638 6.53695C53.2318 5.22497 52.4314 4.03326 51.4117 3.03498C50.3921 2.03671 49.1747 1.25295 47.8344 0.731806C46.4941 0.210663 45.0591 -0.0368595 43.6176 0.0044334C42.2993 0.0322246 41.001 0.32606 39.8041 0.867546C38.6072 1.40903 37.5374 2.18651 36.6616 3.15132C35.4497 4.52596 34.4646 6.07732 33.7416 7.74939C33.0187 6.07732 32.0335 4.52596 30.8217 3.15132C29.9459 2.18651 28.8761 1.40903 27.6792 0.867546C26.4822 0.32606 25.184 0.0322246 23.8657 0.0044334C22.4241 -0.0368595 20.9892 0.210663 19.6488 0.731806C18.3085 1.25295 17.0912 2.03671 16.0716 3.03498C15.0519 4.03326 14.2515 5.22497 13.7195 6.53695C13.1874 7.84894 12.9349 9.25352 12.9776 10.6645C13.0064 11.9542 13.3068 13.2242 13.86 14.3952C14.4133 15.5661 15.2074 16.6127 16.1927 17.4695C16.316 17.5743 16.4458 17.6759 16.5723 17.787H5.19102C3.81428 17.787 2.49392 18.3223 1.52041 19.2751C0.546909 20.228 0 21.5203 0 22.8678V33.0292C0 34.3767 0.546909 35.669 1.52041 36.6219C2.49392 37.5747 3.81428 38.11 5.19102 38.11V58.4329C5.19102 59.7804 5.73793 61.0727 6.71144 62.0256C7.68494 62.9784 9.0053 63.5137 10.382 63.5137H57.1012C58.478 63.5137 59.7983 62.9784 60.7718 62.0256C61.7454 61.0727 62.2923 59.7804 62.2923 58.4329V38.11C63.669 38.11 64.9894 37.5747 65.9629 36.6219C66.9364 35.669 67.4833 34.3767 67.4833 33.0292V22.8678C67.4833 21.5203 66.9364 20.228 65.9629 19.2751C64.9894 18.3223 63.669 17.787 62.2923 17.787ZM40.5549 6.51731C40.9658 6.07312 41.4662 5.7169 42.0245 5.47099C42.5828 5.22509 43.187 5.09481 43.7992 5.08835H43.9582C44.6758 5.09274 45.3852 5.23726 46.045 5.51345C46.7047 5.78964 47.3015 6.19194 47.8004 6.69677C48.2993 7.2016 48.6902 7.79881 48.9502 8.4534C49.2102 9.10799 49.3342 9.8068 49.3147 10.5089C49.3081 11.1081 49.175 11.6995 48.9238 12.2459C48.6725 12.7924 48.3086 13.2821 47.8547 13.6843C44.7758 16.3517 39.6659 17.2917 36.4994 17.6219C36.8887 14.2591 37.9593 9.37205 40.5549 6.51731ZM19.7616 6.63162C20.7671 5.64751 22.129 5.09175 23.551 5.08517H23.71C24.3222 5.09164 24.9264 5.22191 25.4848 5.46782C26.0431 5.71372 26.5434 6.06995 26.9544 6.51413C29.6764 9.52447 30.6368 14.5163 30.9742 17.6028C27.8206 17.2853 22.7205 16.3327 19.6448 13.6684C19.191 13.2662 18.827 12.7765 18.5757 12.23C18.3245 11.6836 18.1914 11.0922 18.1848 10.493C18.1647 9.77925 18.2929 9.06896 18.5617 8.40519C18.8305 7.74143 19.2343 7.13804 19.7486 6.63162H19.7616ZM5.19102 22.8678H31.1461V33.0292H5.19102V22.8678ZM10.382 38.11H31.1461V58.4329H10.382V38.11ZM57.1012 58.4329H36.3372V38.11H57.1012V58.4329ZM62.2923 33.0292H36.3372V22.8678H62.2923V33.0292Z" fill="black"/>
</svg>
