<svg width="35" height="45" viewBox="0 0 35 45" fill="none" xmlns="http://www.w3.org/2000/svg">
<path d="M17.4941 0C9.94391 0 3.79361 6.16218 3.79362 13.7123C3.7936 13.7163 3.7936 13.7203 3.79362 13.7242C3.79362 23.6048 11.4096 33.0684 16.3134 39.0286C16.923 39.7864 18.077 39.7864 18.6865 39.0286C23.5904 33.0684 31.2064 23.6048 31.2064 13.7272C31.2064 13.7223 31.2064 13.7173 31.2064 13.7124C31.2064 6.16221 25.0442 1.72641e-07 17.4941 0ZM17.4941 4.57673C22.5215 4.57673 26.6326 8.68491 26.6326 13.7123C26.6326 18.7398 22.5215 22.839 17.4941 22.839C12.4666 22.839 8.36737 18.7398 8.36737 13.7123C8.36737 8.68491 12.4666 4.57673 17.4941 4.57673ZM17.4941 7.62193C14.1124 7.62193 11.4155 10.3307 11.4155 13.7123C11.4156 17.094 14.1124 19.8057 17.4941 19.8057C20.8757 19.8057 23.5874 17.094 23.5874 13.7123C23.5874 10.3307 20.8757 7.62193 17.4941 7.62193ZM19.775 9.89988C20.2037 9.89814 20.5493 10.2505 20.5393 10.679V12.5466L21.8329 13.8016C22.5568 14.5133 21.4928 15.601 20.7653 14.8929L20.5393 14.6729V15.9962C20.5409 16.4144 20.205 16.7556 19.7869 16.7605H15.2131C14.795 16.7556 14.4591 16.4144 14.4608 15.9962V14.6729L14.2347 14.8929C13.5071 15.6047 12.4395 14.5133 13.1671 13.8016L16.9677 10.117C17.1037 9.98521 17.284 9.90887 17.4732 9.90286C17.682 9.89405 17.8853 9.97149 18.0353 10.117L19.0226 11.0745V10.679C19.0124 10.2844 19.3055 9.94748 19.6977 9.90286C19.7234 9.90056 19.7492 9.89956 19.775 9.89988ZM17.4941 11.7228L15.9625 13.2127C15.9793 13.2888 15.9843 13.3671 15.9774 13.4447V15.229H19.0226V13.2038L17.4941 11.7228ZM9.50932 35.4272C9.48849 35.4278 9.46766 35.4288 9.44687 35.4302C9.41004 35.4329 9.37336 35.4368 9.33684 35.4421C6.11856 35.796 3.72934 36.2981 2.09854 37.048C1.28314 37.423 0.504415 37.8059 0.117969 38.8591C-0.0752747 39.3857 -0.0238274 40.0794 0.219079 40.566C0.461986 41.0527 0.811349 41.3621 1.17665 41.6218C2.63788 42.6605 4.73201 43.1102 7.54957 43.522C10.3671 43.9338 13.8112 44.1644 17.4941 44.1644C21.177 44.1644 24.6359 43.9338 27.4534 43.522C30.271 43.1102 32.3651 42.6605 33.8263 41.6218C34.1917 41.362 34.538 41.0526 34.7809 40.566C35.0238 40.0794 35.0752 39.3857 34.882 38.8591C34.4956 37.8056 33.7199 37.423 32.9044 37.048C31.2736 36.2981 28.8725 35.796 25.6542 35.4421C23.5729 35.1515 23.2343 38.3197 25.3301 38.4754C27.8185 38.7491 29.2984 39.1743 30.4778 39.5668C29.5733 39.8899 28.8184 40.2461 27.0163 40.5095C24.3897 40.8934 21.0501 41.1162 17.497 41.1162C13.944 41.1162 10.6132 40.8934 7.98672 40.5095C6.18455 40.2461 5.42966 39.8899 4.52518 39.5668C5.70462 39.1742 7.18448 38.7491 9.67288 38.4754C11.6353 38.3048 11.4787 35.3869 9.50932 35.4272Z" fill="#D16611"/>
</svg>
