<svg width="19" height="18" viewBox="0 0 19 18" fill="none" xmlns="http://www.w3.org/2000/svg">
<path d="M13.6907 0.0170898H5.00821C2.61186 0.0170898 0.666992 1.95327 0.666992 4.34094V9.53304V10.4013C0.666992 12.789 2.61186 14.7251 5.00821 14.7251H6.31058C6.54501 14.7251 6.85757 14.8814 7.00517 15.0724L8.30754 16.8002C8.88058 17.5643 9.81829 17.5643 10.3913 16.8002L11.6937 15.0724C11.8587 14.8554 12.1191 14.7251 12.3883 14.7251H13.6907C16.087 14.7251 18.0319 12.789 18.0319 10.4013V4.34094C18.0319 1.95327 16.087 0.0170898 13.6907 0.0170898ZM5.87646 8.69953C5.39024 8.69953 5.00821 8.30882 5.00821 7.83129C5.00821 7.35375 5.39892 6.96304 5.87646 6.96304C6.35399 6.96304 6.7447 7.35375 6.7447 7.83129C6.7447 8.30882 6.36267 8.69953 5.87646 8.69953ZM9.34943 8.69953C8.86322 8.69953 8.48119 8.30882 8.48119 7.83129C8.48119 7.35375 8.8719 6.96304 9.34943 6.96304C9.82697 6.96304 10.2177 7.35375 10.2177 7.83129C10.2177 8.30882 9.83565 8.69953 9.34943 8.69953ZM12.8224 8.69953C12.3362 8.69953 11.9542 8.30882 11.9542 7.83129C11.9542 7.35375 12.3449 6.96304 12.8224 6.96304C13.2999 6.96304 13.6907 7.35375 13.6907 7.83129C13.6907 8.30882 13.3086 8.69953 12.8224 8.69953Z" fill="#FEC400"/>
</svg>
