<svg width="32" height="33" viewBox="0 0 32 33" fill="none" xmlns="http://www.w3.org/2000/svg">
<g filter="url(#filter0_d_6866_1589)">
<path d="M21.625 0.766296H10.8967C9.27084 0.766296 7.71154 1.41218 6.56186 2.56186C5.41218 3.71154 4.7663 5.27084 4.7663 6.89673V17.625C4.7663 19.2509 5.41218 20.8102 6.56186 21.9599C7.71154 23.1095 9.27084 23.7554 10.8967 23.7554H21.625C22.9852 23.7564 24.3067 23.303 25.3799 22.4673L19.7583 16.8457C18.3565 17.9701 16.5772 18.5147 14.7863 18.3675C12.9953 18.2203 11.3288 17.3925 10.1294 16.0543C8.93009 14.716 8.28906 12.9692 8.33818 11.1728C8.3873 9.37648 9.12282 7.66724 10.3935 6.39656C11.6642 5.12588 13.3734 4.39036 15.1698 4.34125C16.9661 4.29213 18.713 4.93315 20.0512 6.1325C21.3894 7.33184 22.2172 8.99834 22.3644 10.7893C22.5116 12.5803 21.967 14.3596 20.8426 15.7613L26.4673 21.3799C27.303 20.3067 27.7564 18.9852 27.7554 17.625V6.89673C27.7554 5.27084 27.1095 3.71154 25.9599 2.56186C24.8102 1.41218 23.2509 0.766296 21.625 0.766296Z" fill="#414141"/>
<path d="M15.3666 16.8587C18.3998 16.8587 20.8587 14.3998 20.8587 11.3666C20.8587 8.33338 18.3998 5.87448 15.3666 5.87448C12.3334 5.87448 9.87448 8.33338 9.87448 11.3666C9.87448 14.3998 12.3334 16.8587 15.3666 16.8587Z" fill="#414141"/>
</g>
<defs>
<filter id="filter0_d_6866_1589" x="0" y="0" width="32" height="32.5217" filterUnits="userSpaceOnUse" color-interpolation-filters="sRGB">
<feFlood flood-opacity="0" result="BackgroundImageFix"/>
<feColorMatrix in="SourceAlpha" type="matrix" values="0 0 0 0 0 0 0 0 0 0 0 0 0 0 0 0 0 0 127 0" result="hardAlpha"/>
<feOffset dy="4"/>
<feGaussianBlur stdDeviation="2"/>
<feComposite in2="hardAlpha" operator="out"/>
<feColorMatrix type="matrix" values="0 0 0 0 0 0 0 0 0 0 0 0 0 0 0 0 0 0 0.25 0"/>
<feBlend mode="normal" in2="BackgroundImageFix" result="effect1_dropShadow_6866_1589"/>
<feBlend mode="normal" in="SourceGraphic" in2="effect1_dropShadow_6866_1589" result="shape"/>
</filter>
</defs>
</svg>
