<svg width="18" height="20" viewBox="0 0 18 20" fill="none" xmlns="http://www.w3.org/2000/svg">
<path d="M6.5 16.2609C6.20333 16.2609 5.91332 16.3488 5.66664 16.5137C5.41997 16.6785 5.22771 16.9128 5.11418 17.1868C5.00065 17.4609 4.97094 17.7625 5.02882 18.0535C5.0867 18.3445 5.22956 18.6117 5.43934 18.8215C5.64912 19.0313 5.91639 19.1742 6.20736 19.232C6.49834 19.2899 6.79994 19.2602 7.07403 19.1467C7.34811 19.0332 7.58238 18.8409 7.7472 18.5942C7.91203 18.3475 8 18.0575 8 17.7609C8 17.363 7.84196 16.9815 7.56066 16.7002C7.27936 16.4189 6.89782 16.2609 6.5 16.2609ZM17 13.2609H5C4.73478 13.2609 4.48043 13.1555 4.29289 12.968C4.10536 12.7804 4 12.5261 4 12.2609C4 11.9956 4.10536 11.7413 4.29289 11.5538C4.48043 11.3662 4.73478 11.2609 5 11.2609H13.4912C14.1426 11.2588 14.7758 11.0456 15.2959 10.6534C15.816 10.2611 16.195 9.71085 16.376 9.08508L17.9614 3.53576C18.004 3.38694 18.0114 3.23027 17.9831 3.07809C17.9548 2.92591 17.8915 2.78238 17.7983 2.6588C17.7051 2.53521 17.5845 2.43495 17.446 2.36589C17.3075 2.29684 17.1548 2.26089 17 2.26086H4.73907C4.53206 1.67822 4.15044 1.17357 3.64622 0.815678C3.14201 0.457782 2.53971 0.264045 1.92139 0.260864H1C0.734784 0.260864 0.48043 0.366221 0.292893 0.553757C0.105357 0.741294 0 0.995648 0 1.26086C0 1.52608 0.105357 1.78043 0.292893 1.96797C0.48043 2.15551 0.734784 2.26086 1 2.26086H1.92139C2.13847 2.26162 2.34947 2.33268 2.52279 2.46339C2.6961 2.59411 2.82242 2.77745 2.88281 2.98596L3.03833 3.5307L3.03857 3.53576L4.6792 9.27795C3.91576 9.36008 3.21287 9.73181 2.71527 10.3166C2.21766 10.9014 1.96321 11.6547 2.00433 12.4214C2.04544 13.1882 2.37898 13.91 2.93626 14.4382C3.49355 14.9664 4.23216 15.2608 5 15.2609H17C17.2652 15.2609 17.5196 15.1555 17.7071 14.968C17.8946 14.7804 18 14.5261 18 14.2609C18 13.9956 17.8946 13.7413 17.7071 13.5538C17.5196 13.3662 17.2652 13.2609 17 13.2609ZM15.6743 4.26086L14.4531 8.53527C14.3928 8.74396 14.2664 8.92747 14.093 9.05829C13.9196 9.1891 13.7084 9.26018 13.4912 9.26086H6.75439L6.49945 8.36865L5.32642 4.26086H15.6743ZM14.5 16.2609C14.2033 16.2609 13.9133 16.3488 13.6666 16.5137C13.42 16.6785 13.2277 16.9128 13.1142 17.1868C13.0006 17.4609 12.9709 17.7625 13.0288 18.0535C13.0867 18.3445 13.2296 18.6117 13.4393 18.8215C13.6491 19.0313 13.9164 19.1742 14.2074 19.232C14.4983 19.2899 14.7999 19.2602 15.074 19.1467C15.3481 19.0332 15.5824 18.8409 15.7472 18.5942C15.912 18.3475 16 18.0575 16 17.7609C16 17.363 15.842 16.9815 15.5607 16.7002C15.2794 16.4189 14.8978 16.2609 14.5 16.2609Z" fill="#191A1A"/>
</svg>
