<svg width="60" height="60" viewBox="0 0 60 60" fill="none" xmlns="http://www.w3.org/2000/svg">
<path d="M59.0312 12.1886L47.3563 0.513013C47.0279 0.18447 46.5824 0 46.1179 0H19.2643C16.3673 0 14.0104 2.35689 14.0104 5.25389V28.3521C6.14051 29.2261 0 35.9169 0 44.0159C0 52.7069 7.07068 59.7776 15.7617 59.7776H54.2902C57.1872 59.7776 59.5441 57.4207 59.5441 54.5237V13.427C59.5441 12.9624 59.3596 12.5171 59.0312 12.1886ZM47.8688 5.97928L53.5647 11.6753H47.8688V5.97928ZM3.50259 44.0159C3.50259 37.2563 9.00201 31.7568 15.7617 31.7568C22.5213 31.7568 28.0207 37.2563 28.0207 44.0159C28.0207 50.7756 22.5213 56.275 15.7617 56.275C9.00201 56.275 3.50259 50.7756 3.50259 44.0159ZM54.2902 56.275H25.6564C28.8044 53.7292 30.9557 49.9985 31.4256 45.7672H49.6201C50.5872 45.7672 51.3714 44.9831 51.3714 44.0159C51.3714 43.0487 50.5872 42.2646 49.6201 42.2646H31.4255C31.1399 39.6937 30.2341 37.3074 28.8607 35.2594H49.6201C50.5872 35.2594 51.3714 34.4753 51.3714 33.5081C51.3714 32.541 50.5872 31.7568 49.6201 31.7568H25.6564C23.3772 29.9138 20.5763 28.6923 17.513 28.3521V5.25389C17.513 4.28822 18.2986 3.50259 19.2643 3.50259H44.3662V13.4266C44.3662 14.3938 45.1503 15.1779 46.1175 15.1779H56.0415V54.5237C56.0415 55.4894 55.2558 56.275 54.2902 56.275Z" fill="black"/>
<path d="M49.6108 21.2494H23.9251C22.9579 21.2494 22.1738 22.0335 22.1738 23.0007C22.1738 23.9679 22.9579 24.752 23.9251 24.752H49.6108C50.578 24.752 51.3621 23.9679 51.3621 23.0007C51.3621 22.0335 50.578 21.2494 49.6108 21.2494Z" fill="black"/>
<path d="M20.439 45.7671C21.4062 45.7671 22.1903 44.9829 22.1903 44.0158C22.1903 43.0486 21.4062 42.2645 20.439 42.2645H17.5202V37.0106C17.5202 36.0434 16.7361 35.2593 15.7689 35.2593C14.8017 35.2593 14.0176 36.0434 14.0176 37.0106V44.0158C14.0176 44.9829 14.8017 45.7671 15.7689 45.7671H20.439Z" fill="black"/>
</svg>
