<svg width="64" height="65" viewBox="0 0 64 65" fill="none" xmlns="http://www.w3.org/2000/svg">
<path d="M31.7568 64.468C14.2175 64.468 0 50.2505 0 32.7112C0 15.1719 14.2175 0.954346 31.7568 0.954346C49.2961 0.954346 63.5137 15.1719 63.5137 32.7112C63.5137 50.2505 49.2961 64.468 31.7568 64.468ZM31.7568 58.1167C38.4948 58.1167 44.9568 55.44 49.7212 50.6756C54.4857 45.9111 57.1623 39.4491 57.1623 32.7112C57.1623 25.9732 54.4857 19.5113 49.7212 14.7468C44.9568 9.98235 38.4948 7.30571 31.7568 7.30571C25.0189 7.30571 18.5569 9.98235 13.7925 14.7468C9.02801 19.5113 6.35137 25.9732 6.35137 32.7112C6.35137 39.4491 9.02801 45.9111 13.7925 50.6756C18.5569 55.44 25.0189 58.1167 31.7568 58.1167ZM31.7568 16.9916L47.4765 32.7112L31.7568 48.4308L16.0372 32.7112L31.7568 16.9916ZM31.7568 25.9724L25.0212 32.7112L31.7537 39.4468L38.4925 32.7112L31.7568 25.9724Z" fill="black"/>
</svg>
