<svg width="50" height="48" viewBox="0 0 50 48" fill="none" xmlns="http://www.w3.org/2000/svg">
<path d="M25 0.136719C18.3696 0.136719 12.0107 2.65092 7.32233 7.12622C2.63392 11.6015 0 17.6713 0 24.0004C0 30.3294 2.63392 36.3992 7.32233 40.8745C12.0107 45.3498 18.3696 47.864 25 47.864C31.6304 47.864 37.9893 45.3498 42.6777 40.8745C47.3661 36.3992 50 30.3294 50 24.0004C50 17.6713 47.3661 11.6015 42.6777 7.12622C37.9893 2.65092 31.6304 0.136719 25 0.136719ZM37.5 24.0481C37.5042 24.3048 37.4541 24.5597 37.3528 24.7975C37.2514 25.0353 37.1008 25.2512 36.91 25.4322L28.68 33.2642C28.4932 33.4428 28.2714 33.5846 28.0272 33.6814C27.783 33.7782 27.5212 33.8281 27.2568 33.8283C26.9924 33.8286 26.7305 33.7791 26.4861 33.6827C26.2417 33.5863 26.0196 33.4449 25.8325 33.2666C25.6454 33.0883 25.4969 32.8765 25.3955 32.6434C25.2941 32.4103 25.2417 32.1605 25.2415 31.9081C25.2413 31.6557 25.2931 31.4057 25.3941 31.1724C25.4951 30.9392 25.6432 30.7272 25.83 30.5485L30.65 25.9429H14.5C13.9696 25.9429 13.4609 25.7417 13.0858 25.3837C12.7107 25.0257 12.5 24.5401 12.5 24.0338C12.5 23.5274 12.7107 23.0419 13.0858 22.6838C13.4609 22.3258 13.9696 22.1247 14.5 22.1247H30.695L25.83 17.4808C25.4521 17.1201 25.2397 16.6308 25.2397 16.1206C25.2397 15.868 25.2919 15.6178 25.3931 15.3844C25.4944 15.151 25.6429 14.939 25.83 14.7604C26.0171 14.5817 26.2393 14.44 26.4838 14.3434C26.7283 14.2467 26.9904 14.1969 27.255 14.1969C27.7895 14.1969 28.3021 14.3996 28.68 14.7604L36.91 22.5924C37.0978 22.7706 37.2466 22.9825 37.3479 23.216C37.4492 23.4495 37.5009 23.6999 37.5 23.9526V24.0481Z" fill="#F99B23"/>
</svg>
