<svg xmlns="http://www.w3.org/2000/svg" viewBox="0 0 1024 1024" id="offer">
  <path d="M891 547.6c6.9 12 13.8 24.1 20.8 36.1 4.5 7.9 9.1 15.7 13.6 23.6 2.6 4.6 5.5 9.1 7.6 14l-3-7.2c1.3 3.4 2.2 6.8 2.7 10.4-.4-2.7-.7-5.3-1.1-8 .4 3.5.4 7-.1 10.5.4-2.7.7-5.3 1.1-8-.5 3.5-1.4 6.8-2.7 10.1l3-7.2c-.3.8-3.5 8.2-4.4 8.1-.3-.1 4.5-5.4 2.7-3.4-.6.6-1.2 1.4-1.8 2-1.1 1.1-5.9 5.1-1.5 1.7 4.3-3.3-.4.1-1.8.9-.5.3-1 .6-1.5.8-5.3 3.1-10.6 6.1-15.8 9.1-14.9 8.6-29.9 17.2-44.8 25.8-6.6 3.8-12.7 7.6-18.6 12.7-15 12.9-23.1 33-23.4 52.6-.2 12.6 0 25.3 0 37.9v29.5c0 5.6.3 11.3-.4 16.8.4-2.7.7-5.3 1.1-8-.5 3.5-1.4 6.9-2.7 10.2l3-7.2c-1 2.4-2.3 4.6-3.6 6.9-2.3 3.9 4.4-4.8 2-2.5-.9.9-1.7 1.9-2.6 2.8-.8.8-1.6 1.4-2.4 2.2-3.6 3.4 6.3-4 2-1.6-2.3 1.3-4.4 2.6-6.9 3.6l7.2-3c-3.3 1.3-6.7 2.2-10.2 2.7 2.7-.4 5.3-.7 8-1.1-12.7 1.5-26.1.4-38.9.4-14.8 0-29.5-.1-44.3 0-27.6.1-50.6 14.9-64.2 38.5-8.1 14.1-16.2 28.2-24.4 42.3-4 6.9-7.9 13.8-11.9 20.6-.9 1.5-1.7 3.1-2.7 4.6-3.3 5.2 4.7-5.2.5-.6-1.2 1.3-2.6 2.5-3.9 3.7-1.9 1.8 3.4-3 3.4-2.7 0 .2-2.4 1.6-2.8 1.8-1.7 1-3.5 1.9-5.3 2.6l7.2-3c-3.3 1.3-6.6 2.2-10.1 2.7 2.7-.4 5.3-.7 8-1.1-3.5.4-7 .4-10.5.1 2.7.4 5.3.7 8 1.1-3.6-.5-7-1.4-10.4-2.7l7.2 3c-10.8-4.6-21-11.7-31.2-17.5-13.1-7.5-26.2-15.1-39.3-22.6-9.4-5.4-19.1-9.1-29.9-10.6-15.9-2.1-31.5 1.4-45.5 9.3-11.9 6.8-23.7 13.6-35.5 20.4-12.2 7-24.3 15.4-37.2 21l7.2-3c-3.4 1.3-6.8 2.2-10.4 2.7 2.7-.4 5.3-.7 8-1.1-3.5.4-7 .4-10.5-.1 2.7.4 5.3.7 8 1.1-3.5-.5-6.8-1.4-10.1-2.7l7.2 3c-.8-.3-8.2-3.5-8.1-4.4.1-.3 5.4 4.5 3.4 2.7-.7-.6-1.4-1.2-2-1.8-1.1-1.1-5.1-5.9-1.7-1.5 3.3 4.3-.1-.4-.9-1.8-.3-.5-.6-1-.8-1.5-3.1-5.3-6.1-10.6-9.1-15.8l-25.8-44.7c-3.8-6.6-7.6-12.7-12.7-18.6-12.9-15-33-23.1-52.6-23.4-12.6-.2-25.3 0-37.9 0h-29.5c-5.6 0-11.3.3-16.8-.4 2.7.4 5.3.7 8 1.1-3.5-.5-6.9-1.4-10.2-2.7l7.2 3c-2.4-1-4.6-2.3-6.9-3.6-3.9-2.3 4.8 4.4 2.5 2-.9-.9-1.9-1.7-2.8-2.6-.8-.8-1.4-1.6-2.2-2.4-3.4-3.6 4 6.3 1.6 2-1.3-2.3-2.6-4.4-3.6-6.9l3 7.2c-1.3-3.3-2.2-6.7-2.7-10.2.4 2.7.7 5.3 1.1 8-1.5-12.7-.4-26.1-.4-38.9 0-14.8.1-29.5 0-44.3-.1-27.6-14.9-50.6-38.5-64.2-14.1-8.1-28.2-16.2-42.3-24.4-6.9-4-13.8-7.9-20.6-11.9-1.5-.9-3.1-1.7-4.6-2.7-5.2-3.3 5.2 4.7.6.5-1.3-1.2-2.5-2.6-3.7-3.9-1.8-1.9 3 3.4 2.7 3.4-.2 0-1.6-2.4-1.8-2.8-1-1.7-1.9-3.5-2.6-5.3l3 7.2c-1.3-3.3-2.2-6.6-2.7-10.1.4 2.7.7 5.3 1.1 8-.4-3.5-.4-7-.1-10.5-.4 2.7-.7 5.3-1.1 8 .5-3.6 1.4-7 2.7-10.4l-3 7.2c4.6-10.8 11.7-21 17.5-31.2 7.5-13.1 15.1-26.2 22.6-39.3 5.4-9.4 9.1-19.1 10.6-29.9 2.1-15.9-1.4-31.5-9.3-45.5-6.8-11.9-13.6-23.7-20.4-35.5-7-12.2-15.4-24.3-21-37.2l3 7.2c-1.3-3.4-2.2-6.8-2.7-10.4.4 2.7.7 5.3 1.1 8-.4-3.5-.4-7 .1-10.5-.4 2.7-.7 5.3-1.1 8 .5-3.5 1.4-6.8 2.7-10.1l-3 7.2c.3-.8 3.5-8.2 4.4-8.1.3.1-4.5 5.4-2.7 3.4.6-.7 1.2-1.4 1.8-2 1.1-1.1 5.9-5.1 1.5-1.7-4.3 3.3.4-.1 1.8-.9.5-.3 1-.6 1.5-.8 5.3-3.1 10.6-6.1 15.8-9.1l44.7-25.8c6.6-3.8 12.7-7.6 18.6-12.7 15-12.9 23.1-33 23.4-52.6.2-12.6 0-25.3 0-37.9v-29.5c0-5.6-.3-11.3.4-16.8-.4 2.7-.7 5.3-1.1 8 .5-3.5 1.4-6.9 2.7-10.2l-3 7.2c1-2.4 2.3-4.6 3.6-6.9 2.3-3.9-4.4 4.8-2 2.5.9-.9 1.7-1.9 2.6-2.8.8-.8 1.6-1.4 2.4-2.2 3.6-3.4-6.3 4-2 1.6 2.3-1.3 4.4-2.6 6.9-3.6l-7.2 3c3.3-1.3 6.7-2.2 10.2-2.7-2.7.4-5.3.7-8 1.1 12.7-1.5 26.1-.4 38.9-.4 14.8 0 29.5.1 44.3 0 27.6-.1 50.6-14.9 64.2-38.5 8.1-14.1 16.2-28.2 24.4-42.3 4-6.9 7.9-13.8 11.9-20.6.9-1.5 1.7-3.1 2.7-4.6 3.3-5.2-4.7 5.2-.5.6 1.2-1.3 2.6-2.5 3.9-3.7 1.9-1.8-3.4 3-3.4 2.7 0-.2 2.4-1.6 2.8-1.8 1.7-1 3.5-1.9 5.3-2.6l-7.2 3c3.3-1.3 6.6-2.2 10.1-2.7-2.7.4-5.3.7-8 1.1 3.5-.4 7-.4 10.5-.1-2.7-.4-5.3-.7-8-1.1 3.6.5 7 1.4 10.4 2.7l-7.2-3c10.8 4.6 21 11.7 31.2 17.5 13.1 7.5 26.2 15.1 39.3 22.6 9.4 5.4 19.1 9.1 29.9 10.6 15.9 2.1 31.5-1.4 45.5-9.3 11.9-6.8 23.7-13.6 35.5-20.4 12.2-7 24.3-15.4 37.2-21l-7.2 3c3.4-1.3 6.8-2.2 10.4-2.7-2.7.4-5.3.7-8 1.1 3.5-.4 7-.4 10.5.1-2.7-.4-5.3-.7-8-1.1 3.5.5 6.8 1.4 10.1 2.7l-7.2-3c.8.3 8.2 3.5 8.1 4.4-.1.3-5.4-4.5-3.4-2.7.7.6 1.4 1.2 2 1.8 1.1 1.1 5.1 5.9 1.7 1.5-3.3-4.3.1.4.9 1.8.3.5.6 1 .8 1.5 3.1 5.3 6.1 10.6 9.1 15.8l25.8 44.7c3.8 6.6 7.6 12.7 12.7 18.6 12.9 15 33 23.1 52.6 23.4 12.6.2 25.3 0 37.9 0h29.5c5.6 0 11.3-.3 16.8.4-2.7-.4-5.3-.7-8-1.1 3.5.5 6.9 1.4 10.2 2.7l-7.2-3c2.4 1 4.6 2.3 6.9 3.6 3.9 2.3-4.8-4.4-2.5-2 .9.9 1.9 1.7 2.8 2.6.8.8 1.4 1.6 2.2 2.4 3.4 3.6-4-6.3-1.6-2 1.3 2.3 2.6 4.4 3.6 6.9l-3-7.2c1.3 3.3 2.2 6.7 2.7 10.2-.4-2.7-.7-5.3-1.1-8 1.5 12.7.4 26.1.4 38.9 0 14.8-.1 29.5 0 44.3.1 27.6 14.9 50.6 38.5 64.2 14.1 8.1 28.2 16.2 42.3 24.4 6.9 4 13.8 7.9 20.6 11.9 1.5.9 3.1 1.7 4.6 2.7 5.2 3.3-5.2-4.7-.6-.5 1.3 1.2 2.5 2.6 3.7 3.9 1.8 1.9-3-3.4-2.7-3.4.2 0 1.6 2.4 1.8 2.8 1 1.7 1.9 3.5 2.6 5.3l-3-7.2c1.3 3.3 2.2 6.6 2.7 10.1-.4-2.7-.7-5.3-1.1-8 .4 3.5.4 7 .1 10.5.4-2.7.7-5.3 1.1-8-.5 3.6-1.4 7-2.7 10.4l3-7.2c-5.3 12.5-13.5 24.2-20.2 35.9-7.2 12.5-14.6 25-21.6 37.6-12.5 22.5-12.5 48.8-.1 71.4 7.6 13.8 27.7 19.4 41 10.8 14-9 18.8-26.3 10.8-41-.8-1.5-1.5-2.9-2.2-4.5l3 7.2c-1.4-3.6-2.4-7.2-2.9-11.1.4 2.7.7 5.3 1.1 8-.3-3.3-.3-6.5 0-9.8-.4 2.7-.7 5.3-1.1 8 .5-3.9 1.5-7.5 2.9-11.1l-3 7.2c5.8-13 14.2-25.2 21.2-37.5 6.8-11.9 13.8-23.7 20.5-35.6 19.1-34.3 7.5-77.5-26.5-97.4-13.5-7.9-27.1-15.6-40.6-23.4-7.9-4.5-15.7-9.1-23.6-13.6-1.3-.8-2.7-1.5-4-2.3-1.2-.7-6-4.2-1.8-.9 4.4 3.4-1.2-1.5-2.2-2.5-1.6-1.6-2.1-4.1 2 2.8-.5-.8-1.1-1.6-1.6-2.3-1.3-2-2.3-4.1-3.2-6.3l3 7.2c-1.2-3.1-2.1-6.3-2.6-9.6.4 2.7.7 5.3 1.1 8-1.7-13.3-.4-27.4-.4-40.7 0-14.4.1-28.9 0-43.3-.2-17.9-6.5-33.6-17.8-47.3-12.4-15-31.4-22.8-50.4-24-13.1-.9-26.5-.1-39.7-.1h-29.7c-5.9 0-12 .3-17.9-.4 2.7.4 5.3.7 8 1.1-3.3-.5-6.5-1.4-9.6-2.6l7.2 3c-1.7-.7-3.4-1.5-5.1-2.5-1.2-.7-6.1-4.3-1.6-.8 4.3 3.3-.2-.4-1.2-1.4-.1-.1-1.9-1.7-1.9-2.1.1.8 4.6 6.5 1.7 2-.9-1.4-1.7-2.8-2.5-4.3-3.6-6.2-7.1-12.4-10.7-18.6-8.6-15-17.3-29.9-25.9-44.9-6.3-10.9-14.3-20-24.8-27.1-16.5-11-38.8-14.1-57.8-8.5-15.8 4.7-30.6 15.2-44.8 23.4-9.4 5.4-18.7 10.8-28.1 16.2-5.4 3.1-10.7 6.5-16.4 9.1l7.2-3c-3.6 1.4-7.2 2.4-11.1 2.9 2.7-.4 5.3-.7 8-1.1-3.3.3-6.5.3-9.8 0 2.7.4 5.3.7 8 1.1-3.9-.5-7.5-1.5-11.1-2.9l7.2 3c-13-5.8-25.2-14.2-37.5-21.3-12-7.4-23.8-14.4-35.8-21.1-34.3-19.1-77.6-7.5-97.4 26.5-7.9 13.5-15.6 27.1-23.4 40.6-4.5 7.9-9.1 15.7-13.6 23.6-.8 1.3-1.5 2.7-2.3 4-.7 1.2-4.2 6-.9 1.8 3.4-4.4-1.5 1.2-2.5 2.2-1.6 1.6-4.1 2.1 2.8-2-.8.5-1.6 1.1-2.3 1.6-2 1.3-4.1 2.3-6.3 3.2l7.2-3c-3.1 1.2-6.3 2.1-9.6 2.6 2.7-.4 5.3-.7 8-1.1-13.3 1.7-27.4.4-40.7.4-14.4 0-28.9-.1-43.3 0-17.9.2-33.6 6.5-47.3 17.8-15 12.4-22.8 31.4-24 50.4-.9 13.1-.1 26.5-.1 39.7v29.7c0 5.9.3 12-.4 17.9.4-2.7.7-5.3 1.1-8-.5 3.3-1.4 6.5-2.6 9.6l3-7.2c-.7 1.7-1.5 3.4-2.5 5.1-.7 1.2-4.3 6.1-.8 1.6 3.3-4.3-.4.2-1.4 1.2-.1.1-1.7 1.9-2.1 1.9.8-.1 6.5-4.6 2-1.7-1.4.9-2.8 1.7-4.3 2.5-6.2 3.6-12.4 7.1-18.6 10.7-15 8.6-29.9 17.3-44.9 25.9-10.9 6.3-20 14.3-27.1 24.8-11 16.5-14.1 38.8-8.5 57.8 4.7 15.8 15.2 30.6 23.4 44.8 5.4 9.4 10.8 18.7 16.2 28.1 3.1 5.4 6.5 10.7 9.1 16.4l-3-7.2c1.4 3.6 2.4 7.2 2.9 11.1-.4-2.7-.7-5.3-1.1-8 .3 3.3.3 6.5 0 9.8.4-2.7.7-5.3 1.1-8-.5 3.9-1.5 7.5-2.9 11.1l3-7.2c-5.8 13-14.2 25.2-21.3 37.5-7.2 12-14.2 23.8-20.9 35.8-19.1 34.3-7.5 77.6 26.5 97.4 13.5 7.9 27.1 15.6 40.6 23.4 7.9 4.5 15.7 9.1 23.6 13.6 1.3.8 2.7 1.5 4 2.3 1.2.7 6 4.2 1.8.9-4.4-3.4 1.2 1.5 2.2 2.5 1.6 1.6 2.1 4.1-2-2.8.5.8 1.1 1.6 1.6 2.3 1.3 2 2.3 4.1 3.2 6.3l-3-7.2c1.2 3.1 2.1 6.3 2.6 9.6-.4-2.7-.7-5.3-1.1-8 1.7 13.3.4 27.4.4 40.7 0 14.4-.1 28.9 0 43.3.2 17.9 6.5 33.6 17.8 47.3 12.4 15 31.4 22.8 50.4 24 13.1.9 26.5.1 39.7.1h29.7c5.9 0 12-.3 17.9.4-2.7-.4-5.3-.7-8-1.1 3.3.5 6.5 1.4 9.6 2.6l-7.2-3c1.7.7 3.4 1.5 5.1 2.5 1.2.7 6.1 4.3 1.6.8-4.3-3.3.2.4 1.2 1.4.1.1 1.9 1.7 1.9 2.1-.1-.8-4.6-6.5-1.7-2 .9 1.4 1.7 2.8 2.5 4.3 3.6 6.2 7.1 12.4 10.7 18.6 8.6 15 17.3 29.9 25.9 44.9 6.3 10.9 14.3 20 24.8 27.1 16.5 11 38.8 14.1 57.8 8.5 15.8-4.7 30.6-15.2 44.8-23.4 9.4-5.4 18.7-10.8 28.1-16.2 5.4-3.1 10.7-6.5 16.4-9.1l-7.2 3c3.6-1.4 7.2-2.4 11.1-2.9-2.7.4-5.3.7-8 1.1 3.3-.3 6.5-.3 9.8 0-2.7-.4-5.3-.7-8-1.1 3.9.5 7.5 1.5 11.1 2.9l-7.2-3c13 5.8 25.2 14.2 37.5 21.3 11.9 6.8 23.7 13.9 35.6 20.5 34.3 19.1 77.6 7.5 97.4-26.5 7.9-13.5 15.6-27.1 23.4-40.6 4.5-7.9 9.1-15.7 13.6-23.6.8-1.3 1.5-2.7 2.3-4 .7-1.2 4.2-6 .9-1.8-3.4 4.4 1.5-1.2 2.5-2.2 1.6-1.6 4.1-2.1-2.8 2 .8-.5 1.6-1.1 2.3-1.6 2-1.3 4.1-2.3 6.3-3.2l-7.2 3c3.1-1.2 6.3-2.1 9.6-2.6-2.7.4-5.3.7-8 1.1 13.3-1.7 27.4-.4 40.7-.4 14.4 0 28.9.1 43.3 0 17.9-.2 33.6-6.5 47.3-17.8 15-12.4 22.8-31.4 24-50.4.9-13.1.1-26.5.1-39.7v-29.7c0-5.9-.3-12 .4-17.9-.4 2.7-.7 5.3-1.1 8 .5-3.3 1.4-6.5 2.6-9.6l-3 7.2c.7-1.7 1.5-3.4 2.5-5.1.7-1.1 4.3-6.1.8-1.6-3.3 4.3.4-.2 1.4-1.2.4-.3 2.1-1.6 2.1-1.9-.1.5-6.1 4.2-2.6 2.1 1.6-1 3.2-2 4.9-2.9 6.1-3.5 12.1-7 18.2-10.5 15-8.6 30-17.3 44.9-25.9 10.5-6.1 19.1-13.6 26.3-23.4 11.9-16.2 14.9-38.2 10.2-57.5-3.8-15.8-14.9-31.1-22.9-45l-24-41.7c-7.8-13.6-27.5-19.5-41-10.8-13.2 9.2-18.6 26.8-10.2 41.4z"></path>
  <path d="m650.6 331-31.8 31.8-76.3 76.3-92.3 92.3-79.8 79.8c-12.9 12.9-26.2 25.7-38.9 38.9l-.6.6c-11.1 11.1-11.9 31.5 0 42.4 12 11 30.6 11.9 42.4 0l31.8-31.8 76.3-76.3 92.3-92.3 79.8-79.8c12.9-12.9 26.2-25.7 38.9-38.9l.6-.6c11.1-11.1 11.9-31.5 0-42.4-11.9-11-30.5-11.9-42.4 0zm-235.9 83.7c-1.4 1.4-2.8 2.6-4.3 3.9-3.8 3.4 6.7-4.6.4-.4-3.1 2.1-6.4 3.8-9.8 5.3l7.2-3c-5.5 2.3-11.2 3.9-17.1 4.7 2.7-.4 5.3-.7 8-1.1-5.4.6-10.8.6-16.3 0 2.7.4 5.3.7 8 1.1-5.9-.8-11.6-2.4-17.1-4.7l7.2 3c-3.4-1.5-6.7-3.2-9.8-5.3-6.3-4.2 4.1 3.8.4.4-1.4-1.3-2.9-2.5-4.3-3.9s-2.6-2.8-3.9-4.3c-3.4-3.8 4.6 6.7.4.4-2.1-3.1-3.8-6.4-5.3-9.8l3 7.2c-2.3-5.5-3.9-11.2-4.7-17.1.4 2.7.7 5.3 1.1 8-.6-5.4-.6-10.8 0-16.3-.4 2.7-.7 5.3-1.1 8 .8-5.9 2.4-11.6 4.7-17.1l-3 7.2c1.5-3.4 3.2-6.7 5.3-9.8 4.2-6.3-3.8 4.1-.4.4 1.3-1.4 2.5-2.9 3.9-4.3s2.8-2.6 4.3-3.9c3.8-3.4-6.7 4.6-.4.4 3.1-2.1 6.4-3.8 9.8-5.3l-7.2 3c5.5-2.3 11.2-3.9 17.1-4.7-2.7.4-5.3.7-8 1.1 5.4-.6 10.8-.6 16.3 0-2.7-.4-5.3-.7-8-1.1 5.9.8 11.6 2.4 17.1 4.7l-7.2-3c3.4 1.5 6.7 3.2 9.8 5.3 6.3 4.2-4.1-3.8-.4-.4 1.4 1.3 2.9 2.5 4.3 3.9s2.6 2.8 3.9 4.3c3.4 3.8-4.6-6.7-.4-.4 2.1 3.1 3.8 6.4 5.3 9.8l-3-7.2c2.3 5.5 3.9 11.2 4.7 17.1-.4-2.7-.7-5.3-1.1-8 .6 5.4.6 10.8 0 16.3.4-2.7.7-5.3 1.1-8-.8 5.9-2.4 11.6-4.7 17.1l3-7.2c-1.5 3.4-3.2 6.7-5.3 9.8-4.2 6.3 3.8-4.1.4-.4-1.3 1.5-2.5 2.9-3.9 4.3-11 11.2-12 31.4 0 42.4 11.9 10.9 30.7 12 42.4 0 12.7-13 22.7-30.1 25.6-48.2 3.4-20.9 1-40.5-8-59.8-15.6-33.2-54.1-55.4-90.7-51.7-21 2.1-39 9.6-55.2 23.2-14 11.7-24.4 29.1-28.8 46.7-9.8 39.4 6.6 79.7 40 102.2C376.3 494 426.4 487 457.1 457c11.2-11 11.8-31.6 0-42.4-12.1-11-30.4-11.6-42.4.1zm242.5 242.2c-1.4 1.4-2.8 2.6-4.3 3.9-3.8 3.4 6.7-4.6.4-.4-3.1 2.1-6.4 3.8-9.8 5.3l7.2-3c-5.5 2.3-11.2 3.9-17.1 4.7 2.7-.4 5.3-.7 8-1.1-5.4.6-10.8.6-16.3 0 2.7.4 5.3.7 8 1.1-5.9-.8-11.6-2.4-17.1-4.7l7.2 3c-3.4-1.5-6.7-3.2-9.8-5.3-6.3-4.2 4.1 3.8.4.4-1.4-1.3-2.9-2.5-4.3-3.9s-2.6-2.8-3.9-4.3c-3.4-3.8 4.6 6.7.4.4-2.1-3.1-3.8-6.4-5.3-9.8l3 7.2c-2.3-5.5-3.9-11.2-4.7-17.1.4 2.7.7 5.3 1.1 8-.6-5.4-.6-10.8 0-16.3-.4 2.7-.7 5.3-1.1 8 .8-5.9 2.4-11.6 4.7-17.1l-3 7.2c1.5-3.4 3.2-6.7 5.3-9.8 4.2-6.3-3.8 4.1-.4.4 1.3-1.4 2.5-2.9 3.9-4.3s2.8-2.6 4.3-3.9c3.8-3.4-6.7 4.6-.4.4 3.1-2.1 6.4-3.8 9.8-5.3l-7.2 3c5.5-2.3 11.2-3.9 17.1-4.7-2.7.4-5.3.7-8 1.1 5.4-.6 10.8-.6 16.3 0-2.7-.4-5.3-.7-8-1.1 5.9.8 11.6 2.4 17.1 4.7l-7.2-3c3.4 1.5 6.7 3.2 9.8 5.3 6.3 4.2-4.1-3.8-.4-.4 1.4 1.3 2.9 2.5 4.3 3.9s2.6 2.8 3.9 4.3c3.4 3.8-4.6-6.7-.4-.4 2.1 3.1 3.8 6.4 5.3 9.8l-3-7.2c2.3 5.5 3.9 11.2 4.7 17.1-.4-2.7-.7-5.3-1.1-8 .6 5.4.6 10.8 0 16.3.4-2.7.7-5.3 1.1-8-.8 5.9-2.4 11.6-4.7 17.1l3-7.2c-1.5 3.4-3.2 6.7-5.3 9.8-4.2 6.3 3.8-4.1.4-.4-1.3 1.5-2.6 2.9-3.9 4.3-11 11.2-12 31.4 0 42.4 11.9 10.9 30.7 12 42.4 0 12.7-13 22.7-30.1 25.6-48.2 3.4-20.9 1-40.5-8-59.8-15.6-33.2-54.1-55.4-90.7-51.7-21 2.1-39 9.6-55.2 23.2-14 11.7-24.4 29.1-28.8 46.7-9.8 39.4 6.6 79.7 40 102.2 36.3 24.5 86.4 17.5 117.1-12.5 11.2-11 11.8-31.6 0-42.4-12.1-11-30.5-11.6-42.4.1z"></path>
</svg>
