<svg xmlns="http://www.w3.org/2000/svg" width="32" height="32" id="premium">
  <g transform="translate(210 -1544.825)">
    <path fill="#ee7581" d="M-190.537 1563.315v10.51l-3.44-2.15-3.486 2.15v-10.51" color="#000" overflow="visible" style="isolation:auto;mix-blend-mode:normal"></path>
    <path fill="none" stroke="#d15d6a" d="M-194 1562.362v7"></path>
    <path fill="#105286" d="M-195.563 1546.868c-.222.04-1 1.178-1.212 1.256-.212.078-1.53-.285-1.724-.171-.196.114-.543 1.455-.716 1.602-.173.147-1.534.26-1.679.436-.145.175-.02 1.556-.132 1.754-.113.198-1.354.78-1.431.994-.077.215.505 1.468.466 1.693-.04.225-1.009 1.202-1.009 1.43 0 .23.97 1.206 1.009 1.431.039.225-.543 1.478-.466 1.693.077.215 1.318.796 1.43.994.113.198-.012 1.579.133 1.754.145.175 1.506.29 1.68.436.172.147.52 1.488.715 1.602.195.115 1.512-.25 1.724-.17.211.077.99 1.216 1.212 1.255.222.04 1.337-.76 1.562-.76.226 0 1.342.8 1.564.76.222-.04 1-1.178 1.212-1.256.212-.078 1.53.286 1.724.171.196-.114.543-1.455.716-1.602.173-.146 1.534-.26 1.679-.436.145-.175.02-1.556.132-1.754.113-.198 1.353-.78 1.43-.994.077-.215-.505-1.468-.466-1.693.039-.225 1.01-1.202 1.01-1.43 0-.229-.971-1.206-1.01-1.43-.04-.226.543-1.479.466-1.694-.077-.215-1.317-.796-1.43-.994-.112-.198.012-1.579-.132-1.754-.145-.175-1.506-.29-1.68-.436-.172-.147-.52-1.488-.715-1.602-.195-.114-1.512.25-1.724.171-.211-.078-.99-1.216-1.212-1.256-.222-.04-1.338.76-1.564.76-.225 0-1.34-.8-1.562-.76z" color="#000" overflow="visible" style="isolation:auto;mix-blend-mode:normal"></path>
    <circle cx="-194" cy="1555.862" r="6.5" fill="#406b95" color="#000" overflow="visible" style="isolation:auto;mix-blend-mode:normal"></circle>
    <circle cx="-194" cy="1555.862" r="5.5" fill="#f0f4f7" color="#000" overflow="visible" style="isolation:auto;mix-blend-mode:normal"></circle>
    <path fill="#f9b536" d="M-110 1250.362c-.5.416-4.064-1.72-4.712-1.677-.65.043-3.899 2.633-4.45 2.287-.55-.347.381-4.397.14-5-.242-.604-3.71-2.895-3.55-3.525.16-.63 4.299-.997 4.798-1.413.5-.416 1.607-4.422 2.256-4.465.648-.043 2.276 3.78 2.826 4.127.55.346 4.702.161 4.943.765.242.604-2.891 3.333-3.05 3.963-.16.63 1.299 4.522.799 4.938z" color="#000" overflow="visible" style="isolation:auto;mix-blend-mode:normal" transform="matrix(.46892 .02823 -.02828 .46807 -104.871 976.953)"></path>
  </g>
</svg>
