<svg width="20" height="20" viewBox="0 0 20 20" fill="none" xmlns="http://www.w3.org/2000/svg">
<path d="M15.2334 12.33C15.0561 12.2474 14.8805 12.1616 14.7068 12.0729C13.9903 11.7071 13.0879 11.9723 12.7549 12.7047C12.2967 13.7129 10.9726 13.953 10.1895 13.1699L6.69708 9.6775C5.91402 8.89444 6.15413 7.57031 7.16228 7.11206C7.85643 6.79654 8.10093 5.93611 7.73847 5.26528C7.58536 4.98192 7.44028 4.69344 7.3035 4.40012C7.03055 3.81477 6.79362 3.21645 6.59299 2.60841C6.26221 1.6059 5.12406 1.04685 4.18345 1.52612L1.7046 2.78915C1.29652 2.99708 1.04331 3.42415 1.08322 3.88041C1.41916 7.72017 3.09723 11.3188 5.82272 14.0443C8.54821 16.7698 12.1468 18.4478 15.9866 18.7838C16.4432 18.8237 16.8705 18.5703 17.0786 18.162L18.4102 15.5486C18.8955 14.5962 18.3161 13.4444 17.2954 13.1271C16.5942 12.9092 15.9053 12.6433 15.2334 12.33Z" fill="#FEC400" stroke="white" stroke-width="0.906329" stroke-linecap="round" stroke-linejoin="round"/>
</svg>
