<svg width="27" height="45" viewBox="0 0 27 45" fill="none" xmlns="http://www.w3.org/2000/svg">
<path d="M25.8131 24.2814L3.37665 44.4177C3.00228 44.7539 2.50492 44.9414 1.9877 44.9414C1.47049 44.9414 0.973127 44.7539 0.598764 44.4177L0.574608 44.395C0.392494 44.232 0.247484 44.0359 0.14839 43.8184C0.0492973 43.601 -0.00180244 43.3669 -0.00180244 43.1303C-0.00180244 42.8937 0.0492973 42.6596 0.14839 42.4421C0.247484 42.2247 0.392494 42.0286 0.574608 41.8656L21.7026 22.9049L0.574608 3.95171C0.392494 3.78875 0.247484 3.59259 0.14839 3.37518C0.0492973 3.15776 -0.00180244 2.92363 -0.00180244 2.68702C-0.00180244 2.45042 0.0492973 2.21629 0.14839 1.99887C0.247484 1.78146 0.392494 1.5853 0.574608 1.42234L0.598764 1.39959C0.973127 1.06343 1.47049 0.875908 1.9877 0.875908C2.50492 0.875908 3.00228 1.06343 3.37665 1.39959L25.8131 21.5359C26.0104 21.713 26.1675 21.926 26.2748 22.1619C26.3822 22.3979 26.4375 22.6519 26.4375 22.9087C26.4375 23.1654 26.3822 23.4194 26.2748 23.6554C26.1675 23.8914 26.0104 24.1043 25.8131 24.2814Z" fill="black"/>
</svg>
