<svg width="51" height="71" viewBox="0 0 51 71" fill="none" xmlns="http://www.w3.org/2000/svg">
<path d="M25.8519 4C13.7878 4 4 13.3159 4 24.7896C4 37.9918 18.5679 58.9135 23.9171 66.1398C24.1391 66.4448 24.4301 66.693 24.7664 66.8642C25.1026 67.0353 25.4746 67.1245 25.8519 67.1245C26.2292 67.1245 26.6011 67.0353 26.9374 66.8642C27.2736 66.693 27.5646 66.4448 27.7867 66.1398C33.1358 58.9165 47.7038 38.0024 47.7038 24.7896C47.7038 13.3159 37.9159 4 25.8519 4Z" stroke="black" stroke-width="6.10882" stroke-linecap="round" stroke-linejoin="round"/>
<path d="M25.8523 33.136C29.8751 33.136 33.1363 29.8749 33.1363 25.8521C33.1363 21.8293 29.8751 18.5681 25.8523 18.5681C21.8295 18.5681 18.5684 21.8293 18.5684 25.8521C18.5684 29.8749 21.8295 33.136 25.8523 33.136Z" stroke="black" stroke-width="6.10882" stroke-linecap="round" stroke-linejoin="round"/>
</svg>
