<svg width="30" height="30" viewBox="0 0 30 30" fill="none" xmlns="http://www.w3.org/2000/svg">
<path d="M21.6079 12.2089C21.6079 12.5272 21.4791 12.838 21.2517 13.0654L15.6733 18.6438C15.4459 18.8712 15.1351 19 14.8168 19H14.7789C14.4606 19 14.1498 18.8712 13.9225 18.6438L8.34405 13.0654C7.87414 12.5879 7.88929 11.8148 8.36679 11.3524C8.83671 10.8977 9.58707 10.8977 10.057 11.3524L14.8017 16.0895L19.5387 11.3524C20.0162 10.8825 20.7818 10.8825 21.2517 11.3524C21.4791 11.5798 21.6079 11.883 21.6079 12.2089Z" fill="black" fill-opacity="0.5"/>
<path d="M14.4484 16.4434L14.8019 16.7964L15.1552 16.4431L19.8907 11.7076C20.1752 11.4289 20.6254 11.4333 20.8981 11.706C21.0335 11.8414 21.1079 12.0181 21.1079 12.2089C21.1079 12.3938 21.0323 12.5776 20.8981 12.7118L15.3197 18.2902C15.1855 18.4244 15.0017 18.5 14.8168 18.5H14.7789C14.594 18.5 14.4102 18.4244 14.276 18.2902L8.69922 12.7134C8.42744 12.4359 8.43488 11.9825 8.7146 11.7116C8.98986 11.4454 9.43064 11.4446 9.70683 11.7094L14.4484 16.4434Z" stroke="black" stroke-opacity="0.6"/>
<circle cx="15" cy="15" r="14.5" stroke="black" stroke-opacity="0.6"/>
</svg>
