<svg width="15" height="13" viewBox="0 0 15 13" fill="none" xmlns="http://www.w3.org/2000/svg">
<path d="M9.00271 0C7.40798 0 5.90798 0.645933 4.77113 1.80861C4.56587 2.01854 4.56587 2.35766 4.77113 2.56758L5.65535 3.47189C5.76587 3.58493 5.89219 3.63337 6.03429 3.63337C6.1764 3.63337 6.30271 3.58493 6.41324 3.47189C6.6185 3.26196 6.6185 2.92285 6.41324 2.71292L5.92377 2.21232C6.66587 1.59868 7.55008 1.22727 8.49745 1.13038V1.84091C8.49745 2.13158 8.73429 2.3738 9.0185 2.3738C9.30271 2.3738 9.53956 2.13158 9.53956 1.84091V1.13038C10.5027 1.24342 11.3869 1.63098 12.1132 2.22847L11.608 2.71292C11.4027 2.92285 11.4027 3.26196 11.608 3.47189C11.7185 3.58493 11.8448 3.63337 11.9869 3.63337C12.129 3.63337 12.2553 3.58493 12.3659 3.47189L12.8553 2.97129C13.4396 3.69797 13.8185 4.60227 13.929 5.60347H13.2343C12.9501 5.60347 12.7132 5.84569 12.7132 6.13636C12.7132 6.42703 12.9501 6.66926 13.2343 6.66926H13.929C13.8185 7.65431 13.4396 8.55861 12.8553 9.28529L12.3659 8.78469C12.1606 8.57476 11.829 8.57476 11.6238 8.78469C11.4185 8.99462 11.4185 9.33373 11.6238 9.54366L12.1132 10.0443C11.3869 10.6579 10.5027 11.0455 9.53956 11.1585V10.448C9.53956 10.1573 9.30271 9.91507 9.0185 9.91507C8.73429 9.91507 8.49745 10.1573 8.49745 10.448V11.1585C7.55008 11.0616 6.66587 10.674 5.92377 10.0766L6.41324 9.57596C6.6185 9.36603 6.6185 9.02691 6.41324 8.81699C6.20798 8.60706 5.8764 8.60706 5.67114 8.81699L4.78692 9.72129C4.73956 9.76974 4.69219 9.83433 4.6764 9.89892C4.59745 10.0927 4.64482 10.3188 4.78692 10.4803C5.90798 11.6268 7.40798 12.2727 9.00271 12.2727C12.3027 12.2727 15.0027 9.52751 15.0027 6.13636C15.0027 2.74522 12.3185 0 9.00271 0Z" fill="#292C31"/>
<path d="M8.99761 3.08398C8.7134 3.08398 8.47656 3.32621 8.47656 3.61688V6.13602C8.47656 6.42669 8.7134 6.66891 8.99761 6.66891H11.0976C11.3818 6.66891 11.6187 6.42669 11.6187 6.13602C11.6187 5.84535 11.3818 5.60312 11.0976 5.60312H9.53446V3.61688C9.53446 3.32621 9.29761 3.08398 8.99761 3.08398Z" fill="#292C31"/>
<path d="M4.02632 5.60352H0.521053C0.236842 5.60352 0 5.84574 0 6.13641C0 6.42708 0.236842 6.6693 0.521053 6.6693H4.02632C4.31053 6.6693 4.54737 6.42708 4.54737 6.13641C4.54737 5.84574 4.31053 5.60352 4.02632 5.60352Z" fill="#292C31"/>
<path d="M4.02944 3.53711H1.72418C1.43997 3.53711 1.20312 3.77933 1.20312 4.07C1.20312 4.36067 1.43997 4.6029 1.72418 4.6029H4.02944C4.31365 4.6029 4.55049 4.36067 4.55049 4.07C4.55049 3.77933 4.31365 3.53711 4.02944 3.53711Z" fill="#292C31"/>
<path d="M4.02944 7.6543H1.72418C1.43997 7.6543 1.20312 7.89652 1.20312 8.18719C1.20312 8.47786 1.43997 8.72009 1.72418 8.72009H4.02944C4.31365 8.72009 4.55049 8.47786 4.55049 8.18719C4.55049 7.89652 4.31365 7.6543 4.02944 7.6543Z" fill="#292C31"/>
</svg>
