<svg width="60" height="53" viewBox="0 0 60 53" fill="none" xmlns="http://www.w3.org/2000/svg">
<path d="M54.7805 10.0802H7.14529C6.51361 10.0802 5.9078 9.83308 5.46113 9.39318C5.01446 8.95328 4.76353 8.35665 4.76353 7.73454C4.76353 7.11242 5.01446 6.51579 5.46113 6.07589C5.9078 5.63599 6.51361 5.38886 7.14529 5.38886H47.6353C48.2669 5.38886 48.8727 5.14173 49.3194 4.70183C49.7661 4.26193 50.017 3.6653 50.017 3.04319C50.017 2.42107 49.7661 1.82444 49.3194 1.38454C48.8727 0.944643 48.2669 0.69751 47.6353 0.69751H7.14529C5.25024 0.69751 3.43281 1.43891 2.09281 2.75861C0.752805 4.07831 0 5.8682 0 7.73454V45.2653C0 47.1317 0.752805 48.9216 2.09281 50.2413C3.43281 51.561 5.25024 52.3024 7.14529 52.3024H54.7805C56.0439 52.3024 57.2555 51.8081 58.1489 50.9283C59.0422 50.0485 59.5441 48.8552 59.5441 47.611V14.7716C59.5441 13.5273 59.0422 12.3341 58.1489 11.4543C57.2555 10.5745 56.0439 10.0802 54.7805 10.0802ZM54.7805 47.611H7.14529C6.51361 47.611 5.9078 47.3639 5.46113 46.924C5.01446 46.4841 4.76353 45.8875 4.76353 45.2653V14.3699C5.52824 14.6371 6.33387 14.773 7.14529 14.7716H54.7805V47.611ZM40.49 30.0185C40.49 29.3226 40.6995 28.6423 41.0921 28.0637C41.4846 27.4851 42.0426 27.0341 42.6954 26.7678C43.3482 26.5015 44.0666 26.4318 44.7596 26.5675C45.4526 26.7033 46.0892 27.0384 46.5888 27.5305C47.0885 28.0226 47.4288 28.6495 47.5666 29.332C47.7045 30.0146 47.6337 30.722 47.3633 31.3649C47.0929 32.0079 46.635 32.5574 46.0475 32.944C45.4599 33.3306 44.7692 33.537 44.0626 33.537C43.1151 33.537 42.2064 33.1663 41.5364 32.5064C40.8664 31.8466 40.49 30.9516 40.49 30.0185Z" fill="black"/>
</svg>
