<svg width="36" height="37" viewBox="0 0 36 37" fill="none" xmlns="http://www.w3.org/2000/svg">
<g clip-path="url(#clip0_3630_1134)">
<path d="M18 0.969727C8.05781 0.969727 0 8.82685 0 18.5214C0 28.216 8.05781 36.0731 18 36.0731C27.9422 36.0731 36 28.216 36 18.5214C36 8.82685 27.9422 0.969727 18 0.969727ZM29.2359 29.4706C27.7734 30.8967 26.0789 32.0143 24.1875 32.789C22.2328 33.598 20.1516 34.0025 18 34.0025C15.8555 34.0025 13.7742 33.5912 11.8125 32.789C9.92109 32.0074 8.21953 30.8899 6.76406 29.4706C5.30156 28.0446 4.15547 26.3922 3.36094 24.5479C2.53125 22.6419 2.10938 20.6125 2.10938 18.5214C2.10938 16.4303 2.53125 14.4009 3.35391 12.488C4.15547 10.6437 5.30156 8.98454 6.75703 7.56532C8.22656 6.13925 9.92109 5.0217 11.8125 4.2401C13.7742 3.43793 15.8555 3.02656 18 3.02656C20.1445 3.02656 22.2258 3.43793 24.1875 4.2401C26.0789 5.0217 27.7805 6.13925 29.2359 7.55846C30.6984 8.98454 31.8445 10.6369 32.6391 12.4812C33.4688 14.3872 33.8836 16.4166 33.8836 18.5146C33.8836 20.6057 33.4617 22.6351 32.6391 24.5479C31.8375 26.3922 30.6914 28.0514 29.2359 29.4706Z" fill="white"/>
<path d="M26.5289 12.4949C25.8117 12.9063 25.0242 13.2079 24.1805 13.3725C23.5055 12.6732 22.5422 12.2344 21.4805 12.2344C19.4414 12.2344 17.782 13.8524 17.782 15.8407C17.782 16.1218 17.8102 16.396 17.8805 16.6634C14.8078 16.5126 12.0797 15.0797 10.2586 12.8926C9.94219 13.4273 9.75938 14.0444 9.75938 14.7094C9.75938 15.9573 10.4133 17.0611 11.4047 17.7124C10.8 17.6919 10.2305 17.5273 9.73125 17.2599V17.3011C9.73125 19.0494 11.0039 20.5097 12.6984 20.8388C12.3891 20.9211 12.0586 20.9691 11.7211 20.9691C11.482 20.9691 11.25 20.9485 11.025 20.9074C11.4961 22.3403 12.8602 23.3824 14.4773 23.4099C13.2117 24.3766 11.6156 24.9525 9.88594 24.9525C9.59063 24.9525 9.29531 24.9388 9 24.9045C10.6383 25.9261 12.5789 26.5225 14.6672 26.5225C21.4734 26.5225 25.193 21.0239 25.193 16.2589C25.193 16.1012 25.193 15.9435 25.1859 15.7927C25.9102 15.2785 26.5359 14.6477 27.0281 13.921C26.3672 14.2089 25.65 14.4009 24.9047 14.49C25.6711 14.0444 26.2547 13.3382 26.5289 12.4949Z" fill="white"/>
</g>
<defs>
<clipPath id="clip0_3630_1134">
<rect width="36" height="35.1034" fill="white" transform="translate(0 0.969727)"/>
</clipPath>
</defs>
</svg>
